/* XPM */
static xpm_row_t const bonus_enemy_A[] = {
/* columns rows colors chars-per-pixel */
"64 32 4 1 ",
"  c #F90D5C",
". c #F1B212",
"X c #765BF2",
"o c None",
/* pixels */
"oooooooooooooooooooooooooooooXXXXXXooooooooooooooooooooooooooooo",
"oooooooooooooooooooooooXXXXXX      XXXXXXooooooooooooooooooooooo",
"ooooooooooooooooooooXXX                  XXXoooooooooooooooooooo",
"ooooooooooooooooooXX                        XXoooooooooooooooooo",
"oooooooooooooooooX                            Xooooooooooooooooo",
"oooooooooooooooXX                              XXooooooooooooooo",
"ooooooooooooooX                                  Xoooooooooooooo",
"ooooooooooooXX                                    XXoooooooooooo",
"oooooooooooX                                        Xooooooooooo",
"ooooooooooX                                          Xoooooooooo",
"oooooooooX     ..  ..  ..  ..  ..  ..  ..  ..  ..     Xooooooooo",
"ooooooooX      ..  ..  ..  ..  ..  ..  ..  ..  ..      Xoooooooo",
"ooooooooX      ..  ..  ..  ..  ..  ..  ..  ..  ..      Xoooooooo",
"oooooooX       ..  ..  ..  ..  ..  ..  ..  ..  ..       Xooooooo",
"ooooooX        ..  ..  ..  ..  ..  ..  ..  ..  ..        Xoooooo",
"ooooooX                                                  Xoooooo",
"oooooX                                                    Xooooo",
"ooooX                                                      Xoooo",
"ooooX      ..........................................      Xoooo",
"oooX      ............................................      Xooo",
"oooX     ..............................................     Xooo",
"oooX                                                        Xooo",
"ooX                                                          Xoo",
"ooX                                                          Xoo",
"ooX                                                          Xoo",
"oX                                                            Xo",
"oX                                                            Xo",
"oX                                                            Xo",
"oX                                                            Xo",
"X                                                              X",
"X                                                              X",
"XXXXXXXXXXXXXXXXXXXXXXXXXXXXXXXXXXXXXXXXXXXXXXXXXXXXXXXXXXXXXXXX"
};
