/* XPM */
static xpm_row_t const bonus_enemy_B[] = {
/* columns rows colors chars-per-pixel */
"64 32 4 1 ",
"  c #F90D5C",
". c #F1B212",
"X c #765BF2",
"o c None",
/* pixels */
"oooooooooooooooooooooooooooooooooooooooooooooooooooooooooooooooo",
"oooooooooooooooooooooooooooooooooooooooooooooooooooooooooooooooo",
"oooooooooooooooooooooooooooooooooooooooooooooooooooooooooooooooo",
"oooooooooooooooooooooooooooooooooooooooooooooooooooooooooooooooo",
"oooooooooooooooooooooooooooooooooooooooooooooooooooooooooooooooo",
"ooooooooooooooooooooooooooooo      ooooooooooooooooooooooooooooo",
"ooooooooooooooooooooooo      XXXXXX      ooooooooooooooooooooooo",
"ooooooooooooooooooo    XXXXXXXXXXXXXXXXXX    ooooooooooooooooooo",
"ooooooooooooooooo  XXXXXXXXXXXXXXXXXXXXXXXXXX  ooooooooooooooooo",
"ooooooooooooooo  XXXXXXXXXXXXXXXXXXXXXXXXXXXXXX  ooooooooooooooo",
"oooooooooooooo XXXXXXXXXXXXXXXXXXXXXXXXXXXXXXXXXX oooooooooooooo",
"ooooooooooo   XXXXXXXXXXXXXXXXXXXXXXXXXXXXXXXXXXXX   ooooooooooo",
"oooooooooo XXXXXXXXXXXXXXXXXXXXXXXXXXXXXXXXXXXXXXXXXX oooooooooo",
"ooooooooo XXXXX..XX..XX..XX..XX..XX..XX..XX..XX..XXXXX ooooooooo",
"oooooooo XXXXXX..XX..XX..XX..XX..XX..XX..XX..XX..XXXXXX oooooooo",
"oooooooo XXXXXX..XX..XX..XX..XX..XX..XX..XX..XX..XXXXXX oooooooo",
"ooooooo XXXXXXX..XX..XX..XX..XX..XX..XX..XX..XX..XXXXXXX ooooooo",
"oooooo XXXXXXXX..XX..XX..XX..XX..XX..XX..XX..XX..XXXXXXXX oooooo",
"oooooo XXXXXXXXXXXXXXXXXXXXXXXXXXXXXXXXXXXXXXXXXXXXXXXXXX oooooo",
"ooooo XXXXXXXXXXXXXXXXXXXXXXXXXXXXXXXXXXXXXXXXXXXXXXXXXXXX ooooo",
"oooo XXXXXX..........................................XXXXXX oooo",
"ooo XXXXXX............................................XXXXXX ooo",
"ooo XXXXX..............................................XXXXX ooo",
"ooo XXXXXXXXXXXXXXXXXXXXXXXXXXXXXXXXXXXXXXXXXXXXXXXXXXXXXXXX ooo",
"oo XXXXXXXXXXXXXXXXXXXXXXXXXXXXXXXXXXXXXXXXXXXXXXXXXXXXXXXXXX oo",
"oo XXXXXXXXXXXXXXXXXXXXXXXXXXXXXXXXXXXXXXXXXXXXXXXXXXXXXXXXXX oo",
"o XXXXXXXXXXXXXXXXXXXXXXXXXXXXXXXXXXXXXXXXXXXXXXXXXXXXXXXXXXXX o",
"o XXXXXXXXXXXXXXXXXXXXXXXXXXXXXXXXXXXXXXXXXXXXXXXXXXXXXXXXXXXX o",
"o XXXXXXXXXXXXXXXXXXXXXXXXXXXXXXXXXXXXXXXXXXXXXXXXXXXXXXXXXXXX o",
" XXXXXXXXXXXXXXXXXXXXXXXXXXXXXXXXXXXXXXXXXXXXXXXXXXXXXXXXXXXXXX ",
" XXXXXXXXXXXXXXXXXXXXXXXXXXXXXXXXXXXXXXXXXXXXXXXXXXXXXXXXXXXXXX ",
"                                                                "
};
