/* XPM */
static xpm_row_t const crosshair[] = {
/* columns rows colors chars-per-pixel */
"32 32 2 1 ",
"  c #7E0807",
". c None",
/* pixels */
"...............  ...............",
"...............  ...............",
"...........          ...........",
".........              .........",
".......                  .......",
"......     ....  ....     ......",
".....     .....  .....     .....",
"....     ......  ......     ....",
"....    .......  .......    ....",
"...    ........  ........    ...",
"...   .........  .........   ...",
"..   ..........  ..........   ..",
"..   ..........  ..........   ..",
"..   ..........  ..........   ..",
"..   ..........  ..........   ..",
"                                ",
"                                ",
"..   ..........  ..........   ..",
"..   ..........  ..........   ..",
"..   ..........  ..........   ..",
"..   ..........  ..........   ..",
"...   .........  .........   ...",
"...    ........  ........    ...",
"....    .......  .......    ....",
"....     ......  ......     ....",
".....     .....  .....     .....",
"......     ....  ....     ......",
".......                  .......",
".........              .........",
"...........          ...........",
"...............  ...............",
"...............  ..............."
};
