/* XPM */
static xpm_row_t const dots[] = {
/* columns rows colors chars-per-pixel */
"12 32 3 1 ",
"  c #1A14D8",
". c #FFFFFF",
"X c None",
/* pixels */
"XXXXXXXXXXXX",
"XXXXXXXXXXXX",
"XXXXXXXXXXXX",
"XXXXXXXXXXXX",
"XXXXXXXXXXXX",
"XXXXXXXXXXXX",
"XXXXXXXXXXXX",
"XXXXXXXXXXXX",
"XX       XXX",
"XX  ...   XX",
"XX  ...   XX",
"XX  ...   XX",
"XX  ...   XX",
"XX        XX",
"XXXX      XX",
"XXXXXXXXXXXX",
"XX       XXX",
"XX  ...   XX",
"XX  ...   XX",
"XX  ...   XX",
"XX  ...   XX",
"XX        XX",
"XX        XX",
"XXXX      XX",
"XXXXXXXXXXXX",
"XXXXXXXXXXXX",
"XXXXXXXXXXXX",
"XXXXXXXXXXXX",
"XXXXXXXXXXXX",
"XXXXXXXXXXXX",
"XXXXXXXXXXXX",
"XXXXXXXXXXXX"
};
