/* XPM */
static xpm_row_t const enemy1_B[] = {
/* columns rows colors chars-per-pixel */
"32 32 3 1 ",
"  c #72227A",
". c #251FDF",
"X c None",
/* pixels */
"XXXXXXXXXXXXXXXXXXXXXXXXXXXXXXXX",
"XXXXXXXX   XXXXXXXXXX   XXXXXXXX",
"XXXXXXX  .  XXXXXXXX  .  XXXXXXX",
"XXXXXX  ...  XXXXXX  ...  XXXXXX",
"XXXXXXX  ...  XXXX  ...  XXXXXXX",
"XXXXXXXX ...   XX   ... XXXXXXXX",
"XXXXXXXX  .  XXXXXX  .  XXXXXXXX",
"XXXXXXXXX   XXX  XXX   XXXXXXXXX",
"XXXXXXXXXX XXXX  XXXX XXXXXXXXXX",
"XXXXXXXXXX X        X XXXXXXXXXX",
"XXXXXXXXXX            XXXXXXXXXX",
"XXXXXXXXX      ..      XXXXXXXXX",
"XXXXXXXX      ....      XXXXXXXX",
"XXXXXXXX    ........    XXXXXXXX",
"XXXXXXXX   ..........   XXXXXXXX",
"XXXXXXXX  ............  XXXXXXXX",
"XXXXXXXX  ............  XXXXXXXX",
"XXXXXXXX   ..........   XXXXXXXX",
"XXXXXXXX    ........    XXXXXXXX",
"XXXXXXXXX     ....     XXXXXXXXX",
"XXXXXXXXXX            XXXXXXXXXX",
"XXXXXXXXXXXX        XXXXXXXXXXXX",
"XXXXXXXXXXXXXXX  XXXXXXXXXXXXXXX",
"XXXXXXXXXXXXXXX  XXXXXXXXXXXXXXX",
"XXXXXXXXXXXXXX    XXXXXXXXXXXXXX",
"XXXXXXXXXXX          XXXXXXXXXXX",
"XXXXXXXXXX            XXXXXXXXXX",
"XXXXXXXXX   XXX  XXX   XXXXXXXXX",
"XXXXXXXX   XXXX  XXXX   XXXXXXXX",
"XXXXXXX   XXXXXXXXXXXX   XXXXXXX",
"XXXXXXX  XXXXXXXXXXXXXX  XXXXXXX",
"XXXXXXXXXXXXXXXXXXXXXXXXXXXXXXXX"
};
