/* XPM */
static xpm_row_t const enemy2_B[] = {
/* columns rows colors chars-per-pixel */
"32 32 3 1 ",
"  c #0E6225",
". c #0A945E",
"X c None",
/* pixels */
"XXXXXXXXXXXXXXXXXXXXXXXXXXXXXXXX",
"XXXXXXXXXXXXXXXXXXXXXXXXXXXXXXXX",
"XXXXXXXXXXXXXXXXXXXXXXXXXXXXXXXX",
"XXXXXXXXXXXXXXXXXXXXXXXXXXXXXXXX",
"XXXXXXXXXXXXXX    XXXXXXXXXXXXXX",
"XXXXXXXXXXXX        XXXXXXXXXXXX",
"XXXXXXXXXXX          XXXXXXXXXXX",
"XXXXXXXXXX            XXXXXXXXXX",
"XXXXXXXXXX            XXXXXXXXXX",
"XXXXXXXXXXXX        XXXXXXXXXXXX",
"XXXXXXXXXXXX..    ..XXXXXXXXXXXX",
"XXXXXXXXXXX..........XXXXXXXXXXX",
"XXXXXXXXX..............XXXXXXXXX",
"XXXX.XXX................XXX.XXXX",
"XXXXX......................XXXXX",
"XXXXXX....................XXXXXX",
"XXXXXXX..................XXXXXXX",
"XXXXXXX..................XXXXXXX",
"XXXXXXX..................XXXXXXX",
"XXXXXXXX................XXXXXXXX",
"XXXXX......................XXXXX",
"XXXX........................XXXX",
"XXXX.XX..XX..XX..XX..XX..XX.XXXX",
"XXX..XX..XX..XX..XX..XX..XX..XXX",
"XXXX.XX..XX..XXXXXX..XX..XX.XXXX",
"XXXX..XX..XX..XXXX..XX..XX..XXXX",
"XXXXX..XXX.XXX.XX.XXX.XXX..XXXXX",
"XXXXXX..XXX.XXX..XXX.XXX..XXXXXX",
"XXXXXXXX.XXXXXXXXXXXXXX.XXXXXXXX",
"XXXXXXXXXXXXXXXXXXXXXXXXXXXXXXXX",
"XXXXXXXXXXXXXXXXXXXXXXXXXXXXXXXX",
"XXXXXXXXXXXXXXXXXXXXXXXXXXXXXXXX"
};
