/* XPM */
static xpm_row_t const enemy1_A[] = {
/* columns rows colors chars-per-pixel */
"32 32 3 1 ",
"  c #72227A",
". c #251FDF",
"X c None",
/* pixels */
"XXXXXXXXXXXXXXXXXXXXXXXXXXXXXXXX",
"XXXXXXXXXXXXXXXXXXXXXXXXXXXXXXXX",
"XXXXXXXXXXXXXXXXXXXXXXXXXXXXXXXX",
"XXXXX      XXXXXXXXXX      XXXXX",
"XXX         XXXXXXXX         XXX",
"XXXX  ... XXXXXXXXXXXX ...  XXXX",
"XXXXX  .. XXXXXXXXXXXX ..  XXXXX",
"XXXXXX  . XXXXX  XXXXX .  XXXXXX",
"XXXXXXX   XXXXX  XXXXX   XXXXXXX",
"XXXXXXXX   X        X   XXXXXXXX",
"XXXXXXXXXX     ..     XXXXXXXXXX",
"XXXXXXXXX     ....     XXXXXXXXX",
"XXXXXXXX    ........    XXXXXXXX",
"XXXXXXXX   ..........   XXXXXXXX",
"XXXXXXXX  ............  XXXXXXXX",
"XXXXXXXX .............. XXXXXXXX",
"XXXXXXXX  ............  XXXXXXXX",
"XXXXXXXX   ..........   XXXXXXXX",
"XXXXXXXX    ........    XXXXXXXX",
"XXXXXXXXX     ....     XXXXXXXXX",
"XXXXXXXXXX     ..     XXXXXXXXXX",
"XXXXXXXXXXXX        XXXXXXXXXXXX",
"XXXXXXXXXXXXXXX  XXXXXXXXXXXXXXX",
"XXXXXXXXXXXXXXX  XXXXXXXXXXXXXXX",
"XXXXXXXXXXXXXX    XXXXXXXXXXXXXX",
"XXXXX                      XXXXX",
"XXXX                        XXXX",
"XXX    XXXXXXXX  XXXXXXXX    XXX",
"XX    XXXXXXXXX  XXXXXXXXX    XX",
"XXXXXXXXXXXXXXXXXXXXXXXXXXXXXXXX",
"XXXXXXXXXXXXXXXXXXXXXXXXXXXXXXXX",
"XXXXXXXXXXXXXXXXXXXXXXXXXXXXXXXX"
};
