/* XPM */
static xpm_row_t const highscore_button[] = {
/* columns rows colors chars-per-pixel */
"200 50 6 1 ",
"  c #0000BF",
". c #1A14D8",
"X c #3300CC",
"o c #0000FF",
"O c #144AD8",
"+ c #FFFFFF",
/* pixels */
"........................................................................................................................................................................................................",
"........................................................................................................................................................................................................",
"........................................................................................................................................................................................................",
"........................................................................................................................................................................................................",
"....OOOOOOOOOOOOOOOOOOOOOOOOOOOOOOOOOOOOOOOOOOOOOOOOOOOOOOOOOOOOOOOOOOOOOOOOOOOOOOOOOOOOOOOOOOOOOOOOOOOOOOOOOOOOOOOOOOOOOOOOOOOOOOOOOOOOOOOOOOOOOOOOOOOOOOOOOOOOOOOOOOOOOOOOOOOOOOOOOOOOOOOOOOOOOOOO....",
"....OOOOOOOOOOOOOOOOOOOOOOOOOOOOOOOOOOOOOOOOOOOOOOOOOOOOOOOOOOOOOOOOOOOOOOOOOOOOOOOOOOOOOOOOOOOOOOOOOOOOOOOOOOOOOOOOOOOOOOOOOOOOOOOOOOOOOOOOOOOOOOOOOOOOOOOOOOOOOOOOOOOOOOOOOOOOOOOOOOOOOOOOOOOOOOOO....",
"....OOOOOOOOOOOOOOOOOOOOOOOOOOOOOOOOOOOOOOOOOOOOOOOOOOOOOOOOOOOOOOOOOOOOOOOOOOOOOOOOOOOOOOOOOOOOOOOOOOOOOOOOOOOOOOOOOOOOOOOOOOOOOOOOOOOOOOOOOOOOOOOOOOOOOOOOOOOOOOOOOOOOOOOOOOOOOOOOOOOOOOOOOOOOOOOO....",
"....OO......OOOOOOOO......OO.............OOOOO.............OOOOOO......OOOOOOOO......OOOOO.............OOOOOOOOO.............OOOOOOOO.............OOOOOO................OOOOOO....................OO....",
"....OO..++...OOOOOOO.+++...O..+++++++++...OOOO..+++++++++...OOOOO..++...OOOOOOO.+++...OOOO..+++++++++...OOOOOOOO..+++++++++...OOOOOOO..+++++++++...OOOOO..++++++++++++...OOOOO..++++++++++++++++...O....",
"....OO..++...OOOOOOO.+++...O..+++++++++...OOOO..+++++++++...OOOOO..++...OOOOOOO.+++...OOOO..+++++++++...OOOOOOOO..+++++++++...OOOOOOO..+++++++++...OOOOO..++++++++++++...OOOOO..++++++++++++++++...O....",
"....OO..++...OOOOOOO.+++...O..+++++++++...OOOO..+++++++++...OOOOO..++...OOOOOOO.+++...OOOO..+++++++++...OOOOOOOO..+++++++++...OOOOOOO..+++++++++...OOOOO..++++++++++++...OOOOO..++++++++++++++++...O....",
"....OO..++...OOOOOOO.+++...O..+++++++++...O.....+++++++++..... OO..++...OOOOOOO.+++...O.....+++++++++..... OO.....+++++++++.....OO.....+++++++++..... OO..++++++++++++.....OOO..++++++++++++++++...O....",
"....OO..++...OOOOOOO.+++...O.....+++......O..++...........+++...O..++...OOOOOOO.+++...O..++...........+++...O..++...........+++.....++...........+++...O..++...........+++...O..++.................O....",
"....OO..++...OOOOOOO.+++...O.....+++......O..++...........+++...O..++...OOOOOOO.+++...O..++...........+++...O..++...........+++.....++...........+++...O..++...........+++...O..++.................O....",
"....OO..++...OOOOOOO.+++...OO....+++......O..++...........+++...O..++...OOOOOOO.+++...O..++...........+++...O..++...........+++.....++...........+++...O..++...........+++...O..++.................O....",
"....OO..++...OOOOOOO.+++...OOOO..+++..OOOOO..++...........+++...O..++...OOOOOOO.+++...O..++...OOOOOOO.+++...O..++...OOOOOOO.+++.....++...OOOOOOO.+++...O..++...OOOOOOO.+++...O..++...OOOOOOOOOOOOOOO....",
"....OO..++...OOOOOOO.+++...OOOO..+++..OOOOO..++...........+++...O..++...OOOOOOO.+++...O..++...OOOOOOO.+++...O..++...OOOOOOO.+++.....++...OOOOOOO.+++...O..++...OOOOOOO.+++...O..++...OOOOOOOOOOOOOOO....",
"....OO..++...OOOOOOO.+++...OOOO..+++..OOOOO..++...OOOOOOO.......O..++...OOOOOOO.+++...O..++...OOOOOOO.......O..++...OOOOOOO.........++...OOOOOOO.+++...O..++...OOOOOOO.+++...O..++...OOOOOOOOOOOOOOO....",
"....OO..++...OOOOOOO.+++...OOOO..+++..OOOOO..++...OOOOOOOO......O..++...OOOOOOO.+++...O..++...OOOOOOO.......O..++...OOOOOOO.........++...OOOOOOO.+++...O..++...OOOOOOO.+++...O..++...OOOOOOOOOOOOOOO....",
"....OO..++...OOOOOOO.+++...OOOO..+++..OOOOO..++...OOOOOOOOOOOOOOO..++...OOOOOOO.+++...O..++...OOOOOOOOOOOOOOO..++...OOOOOOOOOOOOOO..++...OOOOOOO.+++...O..++...OOOOOOO.+++...O..++...OOOOOOOOOOOOOOO....",
"....OO..++...OOOOOOO.+++...OOOO..+++..OOOOO..++...OOOOOOOOOOOOOOO..++...OOOOOOO.+++...O..++...OOOOOOOOOOOOOOO..++...OOOOOOOOOOOOOO..++...OOOOOOO.+++...O..++...OOOOOOO.+++...O..++...OOOOOOOOOOOOOOO....",
"....OO..++...........+++...OOOO..+++..OOOOO..++...OOOOOOOOOOOOOOO..++...........+++...O................OOOOOO..++...OOOOOOOOOOOOOO..++...OOOOOOO.+++...O..++...........+++...O..++.........OOOOOOOOO....",
"....OO..++++++++++++++++...OOOO..+++..OOOOO..++................OO..++++++++++++++++...O.....+++++++++...OOOOO..++...OOOOOOOOOOOOOO..++...OOOOOOO.+++...O..++++++++++++.......O..+++++++++..OOOOOOOOO....",
"....OO..++++++++++++++++...OOOO..+++..OOOOO..++.....+++++++++...O..++++++++++++++++...OO....+++++++++...OOOOO..++...OOOOOOOOOOOOOO..++...OOOOOOO.+++...O..++++++++++++...OOOOO..+++++++++...OOOOOOOO....",
"....OO..++++++++++++++++...OOOO..+++..OOOOO..++.....+++++++++...O..++++++++++++++++...OO....+++++++++...OOOOO..++...OOOOOOOOOOOOOO..++...OOOOOOO.+++...O..++++++++++++...OOOOO..+++++++++...OOOOOOOO....",
"....OO..++++++++++++++++...OOOO..+++..OOOOO..++.....+++++++++...O..++++++++++++++++...OOOO..+++++++++.....oOO..++...OOOOOOOOOOOOOO..++...OOOOOOO.+++...O..++++++++++++......OO..+++++++++...OOOOOOOO....",
"....OO..++...........+++...OOOO..+++..OOOOO..++.....+++++++++...O..++...........+++...OOOO............+++..OO..++...OOOOOOOOOOOOOO..++...OOOOOOO.+++...O..++...........+++..OO..++..........OOOOOOOO....",
"....OO..++...........+++...OOOO..+++..OOOOO..++.....+++++++++...O..++...........+++...OOOO............+++..OO..++...OOOOOOOOOOOOOO..++...OOOOOOO.+++...O..++...........+++..OO..++..........OOOOOOOO....",
"....OO..++...........+++...OOOO..+++..OOOOO..++...O.......+++...O..++...........+++...OOOOO...........+++...O..++...OOOOOOOOOOOOOO..++...OOOOOOO.+++...O..++...........+++...O..++..........OOOOOOOO....",
"....OO..++...........+++...OOOO..+++..OOOOO..++...O.......+++...O..++...........+++...OOOOOO..........+++...O..++...OOOOOOOOOOOOOO..++...OOOOOOO.+++...O..++...........+++...O..++...OOOOOOOOOOOOOOO....",
"....OO..++...OOOOOOO.+++...OOOO..+++..OOOOO..++...OOO.....+++...O..++...OOOOOOO.+++...O......OOOOOOOO.+++...O..++...OOOOOOO......O..++...OOOOOOO.+++...O..++...OOOOOOO.+++...O..++...OOOOOOOOOOOOOOO....",
"....OO..++...OOOOOOO.+++...OOOO..+++..OOOOO..++...OOO.....+++...O..++...OOOOOOO.+++...O......OOOOOOOO.+++...O..++...OOOOOOO......O..++...OOOOOOO.+++...O..++...OOOOOOO.+++...O..++...OOOOOOOOOOOOOOO....",
"....OO..++...OOOOOOO.+++...OOOO..+++..OOOOO..++...OOOOOOO.+++...O..++...OOOOOOO.+++...O..++...OOOOOOO.+++...O..++...OOOOOOO.........++...OOOOOOO.+++...O..++...OOOOOOO.+++...O..++...OOOOOOOOOOOOOOO....",
"....OO..++...OOOOOOO.+++...OOOO..+++..OOOOO..++...OOOOOOO.+++...O..++...OOOOOOO.+++...O..++...OOOOOOO.+++...O..++...OOOOOOO.+++.....++...OOOOOOO.+++...O..++...OOOOOOO.+++...O..++...OOOOOOOOOOOOOOO....",
"....OO..++...OOOOOOO.+++...O.....+++.....OO..++...........+++...O..++...OOOOOOO.+++...O..++...........+++...O..++...........+++.....++...........+++...O..++...OOOOOOO.+++...O..++................OO....",
"....OO..++...OOOOOOO.+++...O.....+++.....OO..++...........+++...O..++...OOOOOOO.+++...O..++...........+++...O..++...........+++.....++...........+++...O..++...OOOOOOO.+++...O..++................OO....",
"....OO..++...OOOOOOO.+++...O.....+++......O..++...........+++...O..++...OOOOOOO.+++...O.....+++++++++.......O..++...........+++.....++...........+++...O..++...OOOOOOO.+++...O..++.................O....",
"....OO..++...OOOOOOO.+++...O..+++++++++...OO....+++++++++++++...O..++...OOOOOOO.+++...OO....+++++++++.......OO....+++++++++.......O....+++++++++.......O..++...OOOOOOO.+++...O..++++++++++++++++...O....",
"....OO..++...OOOOOOO.+++...O..+++++++++...OO....+++++++++++++...O..++...OOOOOOO.+++...OO....+++++++++.......OO....+++++++++.......O....+++++++++.......O..++...OOOOOOO.+++...O..++++++++++++++++...O....",
"....OO..++...OOOOOOO.+++...O..+++++++++...OOX...+++++++++++++...O..++...OOOOOOO.+++...OOX...+++++++++......OOOO...+++++++++......OOO...+++++++++......OO..++...OOOOOOO.+++...O..++++++++++++++++...O....",
"....OO.......OOOOOOO.......O..+++++++++...OOOO..+++++++++++++...O.......OOOOOOO.......OOOO..............OOOOOOOO..+++++++++...OOOOOOO..+++++++++...OOOOO.......OOOOOOO.......O..++++++++++++++++...O....",
"....OO.......OOOOOOO.......O..............OOOO .................O.......OOOOOOO.......OOOO..............OOOOOOOOO.............OOOOOOOO.............OOOOO.......OOOOOOO.......O.....................O....",
"....OO.......OOOOOOO.......O..............OOOO .................O.......OOOOOOO.......OOOO..............OOOOOOOOO.............OOOOOOOO.............OOOOO.......OOOOOOO.......O.....................O....",
"....OOO......OOOOOOOO......OO.............OOOOOO................OO......OOOOOOOO......OOOOOO............OOOOOOOOOO............OOOOOOOOO............OOOOOO......OOOOOOOO......OO....................O....",
"....OOOOOOOOOOOOOOOOOOOOOOOOOOOOOOOOOOOOOOOOOOOOOOOOOOOOOOOOOOOOOOOOOOOOOOOOOOOOOOOOOOOOOOOOOOOOOOOOOOOOOOOOOOOOOOOOOOOOOOOOOOOOOOOOOOOOOOOOOOOOOOOOOOOOOOOOOOOOOOOOOOOOOOOOOOOOOOOOOOOOOOOOOOOOOOOO....",
"....OOOOOOOOOOOOOOOOOOOOOOOOOOOOOOOOOOOOOOOOOOOOOOOOOOOOOOOOOOOOOOOOOOOOOOOOOOOOOOOOOOOOOOOOOOOOOOOOOOOOOOOOOOOOOOOOOOOOOOOOOOOOOOOOOOOOOOOOOOOOOOOOOOOOOOOOOOOOOOOOOOOOOOOOOOOOOOOOOOOOOOOOOOOOOOOO....",
"........................................................................................................................................................................................................",
"........................................................................................................................................................................................................",
"........................................................................................................................................................................................................",
"........................................................................................................................................................................................................"
};
