/* XPM */
static xpm_row_t const la[] = {
/* columns rows colors chars-per-pixel */
"24 32 4 1 ",
"  c #1A14D8",
". c #1D17D8",
"X c #FFFFFF",
"o c None",
/* pixels */
"ooooo               oooo",
"ooooo XXXXXXXXXXXX  oooo",
"ooooo XXXXXXXXXXXX   ooo",
"ooooo XXXXXXXXXXXX   ooo",
"oo    XXXXXXXXXXXX     o",
"o  XXX            XXXX  ",
"o  XXX            XXXXX ",
"o  XXX   oooooooo XXXXX ",
"o  XXX  ooooooooo XXXXX ",
"o  XXX  ooooooooo XXXXX ",
"o  XXX  ooooooooo XXXXX ",
"o  XXX  ooooooooo XXXXX ",
"o  XXX            XXXXX ",
"o  XXXX.          XXXXX ",
"o  XXXXXXXXXXXXXXXXXXXX ",
"o  XXXXXXXXXXXXXXXXXXXX ",
"o  XXXXXXXXXXXXXXXXXXXX ",
"o  XXX            XXXXX ",
"o  XXX            XXXXX ",
"o  XXX  ooooooooo XXXXX ",
"o  XXX  ooooooooo XXXXX ",
"o  XXX  ooooooooo XXXXX ",
"o  XXX  ooooooooo XXXXX ",
"o  XXX  ooooooooo XXXXX ",
"o  XXX  ooooooooo XXXXX ",
"o  XXX  ooooooooo XXXXX ",
"o  XXX  ooooooooo XXXXX ",
"o  XXX  ooooooooo XXXXX ",
"o  XXX  ooooooooo XXXXX ",
"o  XXX  ooooooooo  XXX  ",
"oo      oooooooooo      ",
"oo      ooooooooooo     "
};
