/* XPM */
static xpm_row_t const lb[] = {
/* columns rows colors chars-per-pixel */
"24 32 3 1 ",
"  c #1A14D8",
". c #FFFFFF",
"X c None",
/* pixels */
"X                  XXXXX",
"X ...............  XXXXX",
"X ................  XXXX",
"X ................  XXXX",
"X ................     X",
"X ....                 X",
"  ....            ....  ",
"  ....  XXXXXXXXX ....  ",
"  ....  XXXXXXXXX ....  ",
"  ....  XXXXXXXXX ....  ",
"  ....  XXXXXXXXX ....  ",
"  ....  XXXXXXXXX ....  ",
"  ....            ....  ",
"  ....                  ",
"  ................      ",
"  ................  XXXX",
"  ................     X",
"  ....            .... X",
"  ....            ....  ",
"  ....  XXXXXXXXX ....  ",
"  ....  XXXXXXXXX ....  ",
"  ....  XXXXXXXXX ....  ",
"  ....  XXXXXXXXX ....  ",
"  ....  XXXXXXXXX ....  ",
"  ....  XXXXXXXXX ....  ",
"  ....                  ",
"  ................      ",
"  ................      ",
"  ................  XXXX",
"                    XXXX",
"XX                  XXXX",
"XX                  XXXX"
};
