/* XPM */
static xpm_row_t const lc[] = {
/* columns rows colors chars-per-pixel */
"24 32 3 1 ",
"  c #1A14D8",
". c #FFFFFF",
"X c None",
/* pixels */
"XXXXX              XXXXX",
"XXXXX ...........  XXXXX",
"XXXXX ...........   XXXX",
"XXXXX ...........   XXXX",
"X     ...........      X",
"X                      X",
"  ...             ....  ",
"  ...   XXXXXXXX  ....  ",
"  ...   XXXXXXXX  ....  ",
"  ...   XXXXXXXX        ",
"  ...   XXXXXXXXXX      ",
"  ...   XXXXXXXXXXXXXXXX",
"  ...   XXXXXXXXXXXXXXXX",
"  ...   XXXXXXXXXXXXXXXX",
"  ...   XXXXXXXXXXXXXXXX",
"  ...   XXXXXXXXXXXXXXXX",
"  ...   XXXXXXXXXXXXXXXX",
"  ...   XXXXXXXXXXXXXXXX",
"  ...   XXXXXXXXXXXXXXXX",
"  ...   XXXXXXXXXXXXXXXX",
"  ...   XXXXXXXXX      X",
"  ...   XXXXXXXX       X",
"  ...   XXXXXXXX  ....  ",
"  ...   XXXXXXXX  ....  ",
"  ...   XXXXXXXX  ....  ",
"                        ",
"      ...........       ",
"XX    ...........       ",
"XXXXX ...........   XXXX",
"XXXXX               XXXX",
"XXXXX               XXXX",
"XXXXX               XXXX"
};
