/* XPM */
static xpm_row_t const ld[] = {
/* columns rows colors chars-per-pixel */
"24 32 3 1 ",
"  c #1A14D8",
". c #FFFFFF",
"X c None",
/* pixels */
"                  XXXXXX",
"  ............... XXXXXX",
"  ...............  XXXXX",
"  ...............  XXXXX",
"  ...............     XX",
"  ...                  X",
"  ...             ...   ",
"  ...   XXXXXXXX  ...   ",
"  ...  XXXXXXXXX  ...   ",
"  ...  XXXXXXXXX  ...   ",
"  ...  XXXXXXXXX  ...   ",
"  ...  XXXXXXXXX  ...   ",
"  ...  XXXXXXXXX  ...   ",
"  ...  XXXXXXXXX  ...   ",
"  ...  XXXXXXXXX  ...   ",
"  ...  XXXXXXXXX  ...   ",
"  ...  XXXXXXXXX  ...   ",
"  ...  XXXXXXXXX  ...   ",
"  ...  XXXXXXXXX  ...   ",
"  ...  XXXXXXXXX  ...   ",
"  ...  XXXXXXXXX  ...   ",
"  ...  XXXXXXXXX  ...   ",
"  ...  XXXXXXXXX  ...   ",
"  ...  XXXXXXXXX  ...   ",
"  ...   XXXXXXXX  ...   ",
"  ...                   ",
"  ...............       ",
"  ...............       ",
"  ...............  XXXXX",
"                   XXXXX",
"X                  XXXXX",
"XX                 XXXXX"
};
