/* XPM */
static xpm_row_t const le[] = {
/* columns rows colors chars-per-pixel */
"24 32 3 1 ",
"  c #1A14D8",
". c #FFFFFF",
"X c None",
/* pixels */
"                      XX",
" ....................  X",
" ....................  X",
" ....................  X",
" ....................  X",
" ....                  X",
" ....                  X",
" ....  XXXXXXXXXXXXXXXXX",
" ....  XXXXXXXXXXXXXXXXX",
" ....  XXXXXXXXXXXXXXXXX",
" ....  XXXXXXXXXXXXXXXXX",
" ....  XXXXXXXXXXXXXXXXX",
" ....         XXXXXXXXXX",
" ....           XXXXXXXX",
" ............   XXXXXXXX",
" ............   XXXXXXXX",
" ............   XXXXXXXX",
" ....           XXXXXXXX",
" ....           XXXXXXXX",
" ....  XXXXXXXXXXXXXXXXX",
" ....  XXXXXXXXXXXXXXXXX",
" ....  XXXXXXXXXXXXXXXXX",
" ....  XXXXXXXXXXXXXXXXX",
" ....  XXXXXXXXXXXXXXXXX",
" ....                 XX",
" .................... XX",
" ....................   ",
" ....................   ",
" ....................   ",
"  ...................   ",
"X                       ",
"X                       "
};
