/* XPM */
static xpm_row_t const lf[] = {
/* columns rows colors chars-per-pixel */
"24 32 3 1 ",
"  c #1A14D8",
". c #FFFFFF",
"X c None",
/* pixels */
"                      XX",
" .................... XX",
" ....................  X",
" ....................  X",
" ....................  X",
" ...                   X",
" ...                   X",
" ...   XXXXXXXXXXXXXXXXX",
" ...   XXXXXXXXXXXXXXXXX",
" ...   XXXXXXXXXXXXXXXXX",
" ...   XXXXXXXXXXXXXXXXX",
" ...   XXXXXXXXXXXXXXXXX",
" ...          XXXXXXXXXX",
" ...          XXXXXXXXXX",
" ............  XXXXXXXXX",
" ............  XXXXXXXXX",
" ............  XXXXXXXXX",
" ...           XXXXXXXXX",
" ...           XXXXXXXXX",
" ...   XXXXXXXXXXXXXXXXX",
" ...   XXXXXXXXXXXXXXXXX",
" ...   XXXXXXXXXXXXXXXXX",
" ...   XXXXXXXXXXXXXXXXX",
" ...   XXXXXXXXXXXXXXXXX",
" ...   XXXXXXXXXXXXXXXXX",
" ...   XXXXXXXXXXXXXXXXX",
" ...   XXXXXXXXXXXXXXXXX",
" ...   XXXXXXXXXXXXXXXXX",
" ...   XXXXXXXXXXXXXXXXX",
"       XXXXXXXXXXXXXXXXX",
"X      XXXXXXXXXXXXXXXXX",
"X      XXXXXXXXXXXXXXXXX"
};
