/* XPM */
static xpm_row_t const lg[] = {
/* columns rows colors chars-per-pixel */
"24 32 3 1 ",
"  c #1A14D8",
". c #FFFFFF",
"X c None",
/* pixels */
"XXXX               XXXXX",
"XXXX  ............ XXXXX",
"XXXX  ............  XXXX",
"XXXX  ............  XXXX",
"X     ............    XX",
"                       X",
"  ...             ....  ",
"  ...   XXXXXXXXX ....  ",
"  ...   XXXXXXXXX ....  ",
"  ...   XXXXXXXXX       ",
"  ...   XXXXXXXXXX      ",
"  ...   XXXXXXXXXXXXXXXX",
"  ...   X             XX",
"  ...                  X",
"  ...     ............  ",
"  ...     ............  ",
"  ...     ............  ",
"  ...             ....  ",
"  ...   XX        ....  ",
"  ...   XXXXXXXXX ....  ",
"  ...   XXXXXXXXX ....  ",
"  ...   XXXXXXXXX ....  ",
"  ...   XXXXXXXXX ....  ",
"  ...   XXXXXXXXX ....  ",
"  ...   XXXXXXXXX ....  ",
"                  ....  ",
"X     ................  ",
"XX    ................  ",
"XXXX  ................  ",
"XXXX                    ",
"XXXXXX                  ",
"XXXXXX                  "
};
