/* XPM */
static xpm_row_t const lh[] = {
/* columns rows colors chars-per-pixel */
"24 32 3 1 ",
"  c #1A14D8",
". c #FFFFFF",
"X c None",
/* pixels */
"      XXXXXXXXXXX     XX",
" .... XXXXXXXXXXX ...  X",
" ....  XXXXXXXXXX ...   ",
" ....  XXXXXXXXXX ...   ",
" ....  XXXXXXXXXX ...   ",
" ....  XXXXXXXXXX ...   ",
" ....  XXXXXXXXXX ...   ",
" ....  XXXXXXXXXX ...   ",
" ....  XXXXXXXXXX ...   ",
" ....  XXXXXXXXXX ...   ",
" ....  XXXXXXXXXX ...   ",
" ....  XXXXXXXXXX ...   ",
" ....             ...   ",
" ....            ....   ",
" ....................   ",
" ....................   ",
" ....................   ",
" ....             ...   ",
" ....             ...   ",
" ....  XXXXXXXXXX ...   ",
" ....  XXXXXXXXXX ...   ",
" ....  XXXXXXXXXX ...   ",
" ....  XXXXXXXXXX ...   ",
" ....  XXXXXXXXXX ...   ",
" ....  XXXXXXXXXX ...   ",
" ....  XXXXXXXXXX ...   ",
" ....  XXXXXXXXXX ...   ",
" ....  XXXXXXXXXX ...   ",
" ....  XXXXXXXXXX ...   ",
"  ...  XXXXXXXXXX ...   ",
"X      XXXXXXXXXX       ",
"X      XXXXXXXXXX       "
};
