/* XPM */
static xpm_row_t const li[] = {
/* columns rows colors chars-per-pixel */
"24 32 3 1 ",
"  c #1A14D8",
". c #FFFFFF",
"X c None",
/* pixels */
"XXXXX              XXXXX",
"XXXXX ............ XXXXX",
"XXXXX ............  XXXX",
"XXXXX ............  XXXX",
"XXXXX ............  XXXX",
"XXXXX     ...       XXXX",
"XXXXXX    ...       XXXX",
"XXXXXXXXX ...   XXXXXXXX",
"XXXXXXXXX ...   XXXXXXXX",
"XXXXXXXXX ...   XXXXXXXX",
"XXXXXXXXX ...   XXXXXXXX",
"XXXXXXXXX ...   XXXXXXXX",
"XXXXXXXXX ...   XXXXXXXX",
"XXXXXXXXX ...   XXXXXXXX",
"XXXXXXXXX ...   XXXXXXXX",
"XXXXXXXXX ...   XXXXXXXX",
"XXXXXXXXX ...   XXXXXXXX",
"XXXXXXXXX ...   XXXXXXXX",
"XXXXXXXXX ...   XXXXXXXX",
"XXXXXXXXX ...   XXXXXXXX",
"XXXXXXXXX ...   XXXXXXXX",
"XXXXXXXXX ...   XXXXXXXX",
"XXXXXXXXX ...   XXXXXXXX",
"XXXXXXXXX ...   XXXXXXXX",
"XXXXX     ...      XXXXX",
"XXXXX     ....     XXXXX",
"XXXXX ............  XXXX",
"XXXXX ............  XXXX",
"XXXXX ............  XXXX",
"XXXXX               XXXX",
"XXXXXX              XXXX",
"XXXXXX              XXXX"
};
