/* XPM */
static xpm_row_t const lj[] = {
/* columns rows colors chars-per-pixel */
"24 32 3 1 ",
"  c #1A14D8",
". c #FFFFFF",
"X c None",
/* pixels */
"XXXXXXXXXXXXXXXXX      X",
"XXXXXXXXXXXXXXXXX .... X",
"XXXXXXXXXXXXXXXXX ....  ",
"XXXXXXXXXXXXXXXXX ....  ",
"XXXXXXXXXXXXXXXXX ....  ",
"XXXXXXXXXXXXXXXXX ....  ",
"XXXXXXXXXXXXXXXXX ....  ",
"XXXXXXXXXXXXXXXXX ....  ",
"XXXXXXXXXXXXXXXXX ....  ",
"XXXXXXXXXXXXXXXXX ....  ",
"XXXXXXXXXXXXXXXXX ....  ",
"XXXXXXXXXXXXXXXXX ....  ",
"XXXXXXXXXXXXXXXXX ....  ",
"XXXXXXXXXXXXXXXXX ....  ",
"XXXXXXXXXXXXXXXXX ....  ",
"XXXXXXXXXXXXXXXXX ....  ",
"X      XXXXXXXXXX ....  ",
"X      XXXXXXXXXX ....  ",
"X ...   XXXXXXXXX ....  ",
"X ...   XXXXXXXXX ....  ",
"X ...   XXXXXXXXX ....  ",
"X ...   XXXXXXXXX ....  ",
"X ...   XXXXXXXXX ....  ",
"X ...   XXXXXXXXX ....  ",
"X ...   XXXXXXXXX ....  ",
"X                       ",
"X     ............      ",
"XX    ............      ",
"XXXXX ............  XXXX",
"XXXXX               XXXX",
"XXXXXX              XXXX",
"XXXXXXX             XXXX"
};
