/* XPM */
static xpm_row_t const lk[] = {
/* columns rows colors chars-per-pixel */
"24 32 5 1 ",
"  c #1A14D8",
". c #F7F6FE",
"X c #FDFDFE",
"o c #FFFFFF",
"O c None",
/* pixels */
"      OOOOOOOOOO      OO",
"  ooo  OOOOOOOOO .oXo  O",
"  ooo  OOOOOOOOO oooo   ",
"  ooo  OOOOOOOOO oooo   ",
"  ooo  OOOOOOOOO oooo   ",
"  ooo  OOOOOOOOO oooo   ",
"  ooo  OOOOOOOOO oooo   ",
"  ooo  OOOOOOOOO oooo   ",
"  ooo  OOOOO     oooo   ",
"  ooo  OOOOO            ",
"  ooo  OOOOO oooo       ",
"  ooo  OOOOO oooo   OOOO",
"  ooo        oooo   OOOO",
"  oooo      o       OOOO",
"  ooooooooooo       OOOO",
"  ooooooooooo  OOOOOOOOO",
"  ooooooooooo     OOOOOO",
"  ooo        oooo  OOOOO",
"  ooo        oooo   OOOO",
"  ooo  OOOOO oooo   OOOO",
"  ooo  OOOOO oooo     OO",
"  ooo  OOOOO     oooo  O",
"  ooo  OOOOOOO   oooo   ",
"  ooo  OOOOOOOOO oooo   ",
"  ooo  OOOOOOOOO oooo   ",
"  ooo  OOOOOOOOO oooo   ",
"  ooo  OOOOOOOOO oooo   ",
"  ooo  OOOOOOOOO oooo   ",
"  ooo  OOOOOOOOO oooo   ",
"       OOOOOOOOO        ",
"O      OOOOOOOOOO       ",
"O      OOOOOOOOOO       "
};
