/* XPM */
static xpm_row_t const lm[] = {
/* columns rows colors chars-per-pixel */
"24 32 3 1 ",
"  c #1A14D8",
". c #FFFFFF",
"X c None",
/* pixels */
"     XXXXXXXXXXX      XX",
" ... XXXXXXXXXXX .... XX",
" ...   XXXXXXXXX ....  X",
" ...   XXXXXXXXX ....  X",
" ...     XXX     ....  X",
" ....     X      ....  X",
" .......   X ........  X",
" .......   X ........  X",
" .......     ........  X",
" ...     ...     ....  X",
" ...     ...     ....  X",
" ...     ...   X ....  X",
" ...   X ...   X ....  X",
" ...   X       X ....  X",
" ...   XX      X ....  X",
" ...   XXXXXXXXX ....  X",
" ...   XXXXXXXXX ....  X",
" ...   XXXXXXXXX ....  X",
" ...   XXXXXXXXX ....  X",
" ...   XXXXXXXXX ....  X",
" ...   XXXXXXXXX ....  X",
" ...   XXXXXXXXX ....  X",
" ...   XXXXXXXXX ....  X",
" ...   XXXXXXXXX ....  X",
" ...   XXXXXXXXX ....  X",
" ...   XXXXXXXXX ....  X",
" ...   XXXXXXXXX ....  X",
" ...   XXXXXXXXX ....  X",
" ...   XXXXXXXXX ....  X",
" ...   XXXXXXXXX  ...  X",
"       XXXXXXXXXX      X",
"                       X"
};
