/* XPM */
static xpm_row_t const ln[] = {
/* columns rows colors chars-per-pixel */
"24 32 3 1 ",
"  c #1A14D8",
". c #FFFFFF",
"X c None",
/* pixels */
"X      XXXXXXXXXXX      ",
"X  ...  XXXXXXXXXX .... ",
"X  ...  XXXXXXXXXX .... ",
"X  ...  XXXXXXXXXX .... ",
"X  ...     XXXXXXX .... ",
"X  .......  XXXXXX .... ",
"X  .......  XXXXXX .... ",
"X  .......  XXXXXX .... ",
"X  .......      XX .... ",
"X  ...    ....  XX .... ",
"X  ...    ....  XX .... ",
"X  ...  X ....  XX .... ",
"X  ...  X ....     .... ",
"X  ...  XX    ......... ",
"X  ...  XXX   ......... ",
"X  ...  XXXXX ......... ",
"X  ...  XXXXX ......... ",
"X  ...  XXXXXX     .... ",
"X  ...  XXXXXXX    .... ",
"X  ...  XXXXXXXXXX .... ",
"X  ...  XXXXXXXXXX .... ",
"X  ...  XXXXXXXXXX .... ",
"X  ...  XXXXXXXXXX .... ",
"X  ...  XXXXXXXXXX .... ",
"X  ...  XXXXXXXXXX .... ",
"X  ...  XXXXXXXXXX .... ",
"X  ...  XXXXXXXXXX .... ",
"X  ...  XXXXXXXXXX .... ",
"X  ...  XXXXXXXXXX .... ",
"X       XXXXXXXXXX      ",
"X       XXXXXXXXXXX     ",
"X       XXXXXXXXXXX     "
};
