/* XPM */
static xpm_row_t const lo[] = {
/* columns rows colors chars-per-pixel */
"24 32 3 1 ",
"  c #1A14D8",
". c #FFFFFF",
"X c None",
/* pixels */
"XXXXX              XXXXX",
"XXXXX ............  XXXX",
"XXXXX ............  XXXX",
"XXXXX ............  XXXX",
"      ............     X",
"  ....            .... X",
"  ....            ....  ",
"  ....  XXXXXXXXX ....  ",
"  ....  XXXXXXXXX ....  ",
"  ....  XXXXXXXXX ....  ",
"  ....  XXXXXXXXX ....  ",
"  ....  XXXXXXXXX ....  ",
"  ....  XXXXXXXXX ....  ",
"  ....  XXXXXXXXX ....  ",
"  ....  XXXXXXXXX ....  ",
"  ....  XXXXXXXXX ....  ",
"  ....  XXXXXXXXX ....  ",
"  ....  XXXXXXXXX ....  ",
"  ....  XXXXXXXXX ....  ",
"  ....  XXXXXXXXX ....  ",
"  ....  XXXXXXXXX ....  ",
"  ....  XXXXXXXXX ....  ",
"  ....  XXXXXXXXX ....  ",
"  ....  XXXXXXXXX ....  ",
"  ....            ....  ",
"                        ",
"XX    ............      ",
"XXX   ............      ",
"XXXXX ............  XXXX",
"XXXXX               XXXX",
"XXXXXX              XXXX",
"XXXXXXX             XXXX"
};
