/* XPM */
static xpm_row_t const lp[] = {
/* columns rows colors chars-per-pixel */
"24 32 3 1 ",
"  c #1A14D8",
". c #FFFFFF",
"X c None",
/* pixels */
"X                 XXXXXX",
"X ...............  XXXXX",
"X ...............   XXXX",
"X ...............   XXXX",
"X ...............      X",
"X ...             ....  ",
"X ...             ....  ",
"X ...   XXXXXXXXX ....  ",
"X ...   XXXXXXXX  ....  ",
"X ...   XXXXXXXX  ....  ",
"X ...   XXXXXXXX  ....  ",
"X ...   XXXXXXXX  ....  ",
"X ...             ....  ",
"X ...............       ",
"X ...............       ",
"X ...............   XXXX",
"X ...............   XXXX",
"X ...               XXXX",
"X ...               XXXX",
"X ...   XXXXXXXXXXXXXXXX",
"X ...   XXXXXXXXXXXXXXXX",
"X ...   XXXXXXXXXXXXXXXX",
"X ...   XXXXXXXXXXXXXXXX",
"X ...   XXXXXXXXXXXXXXXX",
"X ...   XXXXXXXXXXXXXXXX",
"X ...   XXXXXXXXXXXXXXXX",
"X ...   XXXXXXXXXXXXXXXX",
"X ...   XXXXXXXXXXXXXXXX",
"X ...   XXXXXXXXXXXXXXXX",
"X       XXXXXXXXXXXXXXXX",
"XX      XXXXXXXXXXXXXXXX",
"XX      XXXXXXXXXXXXXXXX"
};
