/* XPM */
static xpm_row_t const lq[] = {
/* columns rows colors chars-per-pixel */
"24 32 6 1 ",
"  c #1A14D8",
". c #EFEEFC",
"X c #F7F7FE",
"o c #FEFEFF",
"O c #FFFFFF",
"+ c None",
/* pixels */
"++++              ++++++",
"++++  OOOOOOOOOOO  +++++",
"++++  OOOOOOOOOOO  +++++",
"++++  OOOOOOOOOOO  +++++",
"      OOOOOOOOOOO      +",
"  OOO             OOO  +",
"  OOO             OOO  +",
"  OOO  +++++++++  OOO  +",
"  OOO  +++++++++  OOO  +",
"  OOO  +++++++++  OOO  +",
"  OOO  +++++++++  OOO  +",
"  OOO  +++++++++  OOO  +",
"  OOO  +++++++++  OOO  +",
"  OOO  +++++++++  OOO  +",
"  OOO  +++++++++  OOO  +",
"  OOO  +++++++++  OOO  +",
"  OOO  +      ++  OOO  +",
"  OOO  +  X.o ++  OOO  +",
"  OOO  +  OOO  +  OOO  +",
"  OOO  +  OOO  +  OOO  +",
"  OOO  +  OOO     OOO  +",
"  OOO  +         OOOO  +",
"  OOO  ++     OOOOOOO  +",
"  OOO  +++    OOOOOOO  +",
"  OOO         OOOOOOO  +",
"             OOOOOOOO  +",
"++    OOOOOOOOOOOOOOO  +",
"++    OOOOOOOOOOOOOOO  +",
"++++  OOOOOOOOOOOOOOO  +",
"++++                   +",
"++++++                 +",
"+++++++                +"
};
