/* XPM */
static xpm_row_t const lr[] = {
/* columns rows colors chars-per-pixel */
"24 32 3 1 ",
"  c #1A14D8",
". c #FFFFFF",
"X c None",
/* pixels */
"X                  XXXXX",
"X  ...............  XXXX",
"X  ...............   XXX",
"X  ...............   XXX",
"X  ...............     X",
"X  ...             ...  ",
"   ...             ...  ",
"   ...  XXXXXXXXX  ...  ",
"   ...  XXXXXXXXX  ...  ",
"   ...  XXXXXXXXX  ...  ",
"   ...  XXXXXXXXX  ...  ",
"   ...  XXXXXXXXX  ...  ",
"   ...             ...  ",
"   ...............      ",
"   ...............      ",
"   ...............   XXX",
"   ...............     X",
"   ...             ...  ",
"   ...             ...  ",
"   ...  XXXXXXXXXX ...  ",
"   ...  XXXXXXXXXX ...  ",
"   ...  XXXXXXXXXX ...  ",
"   ...  XXXXXXXXXX ...  ",
"   ...  XXXXXXXXXX ...  ",
"   ...  XXXXXXXXXX ...  ",
"   ...  XXXXXXXXXX ...  ",
"   ...  XXXXXXXXXX ...  ",
"   ...  XXXXXXXXXX ...  ",
"   ...  XXXXXXXXXX ...  ",
"        XXXXXXXXXX      ",
"        XXXXXXXXXXX     ",
"        XXXXXXXXXXX     "
};
