/* XPM */
static xpm_row_t const ls[] = {
/* columns rows colors chars-per-pixel */
"24 32 3 1 ",
"  c #1A14D8",
". c #FFFFFF",
"X c None",
/* pixels */
"XXXXX              XXXXX",
"XXXXX ............  XXXX",
"XXXXX ............  XXXX",
"XXXXX ............  XXXX",
"X     ............     X",
"  ...              ...  ",
"  ...              ...  ",
"  ...   XXXXXXXXX  ...  ",
"  ...    XXXXXXXX  ...  ",
"  ...    XXXXXXXXX      ",
"  ...    XXXXXXXXXX     ",
"  ...    XXXXXXXXXXXXXXX",
"  ...              XXXXX",
"      ............  XXXX",
" X    ............  XXXX",
"XXXXX ............  XXXX",
"XXXXX ............     X",
"XXXXX              ...  ",
" XXXXXX            ...  ",
" XXXXXXXXXXXXXXXX  ...  ",
"       XXXXXXXXXX  ...  ",
"  ...  XXXXXXXXXX  ...  ",
"  ...    XXXXXXXX  ...  ",
"  ...    XXXXXXXX  ...  ",
"  ...              ...  ",
"                        ",
" X    ............      ",
" XX   ............      ",
" XXX  ............  XXXX",
" XXXX               XXXX",
" XXXX               XXXX",
" XXXXX              XXXX"
};
