/* XPM */
static xpm_row_t const lt[] = {
/* columns rows colors chars-per-pixel */
"24 32 3 1 ",
"  c #1A14D8",
". c #FFFFFF",
"X c None",
/* pixels */
"X                       ",
"X  .................... ",
"X  .................... ",
"X  .................... ",
"X  .................... ",
"XX         ....         ",
"XXX        ....         ",
"XXXXXXXXX  ....  XXXXXXX",
"XXXXXXXXX  ....  XXXXXXX",
"XXXXXXXXX  ....  XXXXXXX",
"XXXXXXXXX  ....  XXXXXXX",
"XXXXXXXXX  ....  XXXXXXX",
"XXXXXXXXX  ....  XXXXXXX",
"XXXXXXXXX  ....  XXXXXXX",
"XXXXXXXXX  ....  XXXXXXX",
"XXXXXXXXX  ....  XXXXXXX",
"XXXXXXXXX  ....  XXXXXXX",
"XXXXXXXXX  ....  XXXXXXX",
"XXXXXXXXX  ....  XXXXXXX",
"XXXXXXXXX  ....  XXXXXXX",
"XXXXXXXXX  ....  XXXXXXX",
"XXXXXXXXX  ....  XXXXXXX",
"XXXXXXXXX  ....  XXXXXXX",
"XXXXXXXXX  ....  XXXXXXX",
"XXXXXXXXX  ....  XXXXXXX",
"XXXXXXXXX  ....  XXXXXXX",
"XXXXXXXXX  ....  XXXXXXX",
"XXXXXXXXX  ....  XXXXXXX",
"XXXXXXXXX  ....  XXXXXXX",
"XXXXXXXXX        XXXXXXX",
"XXXXXXXXXXX      XXXXXXX",
"XXXXXXXXXXX      XXXXXXX"
};
