/* XPM */
static xpm_row_t const lu[] = {
/* columns rows colors chars-per-pixel */
"24 32 3 1 ",
"  c #1A14D8",
". c #FFFFFF",
"X c None",
/* pixels */
"X      XXXXXXXXXXX     X",
"X  ...  XXXXXXXXXX ...  ",
"X  ...  XXXXXXXXXX ...  ",
"X  ...  XXXXXXXXXX ...  ",
"X  ...  XXXXXXXXXX ...  ",
"X  ...  XXXXXXXXXX ...  ",
"X  ...  XXXXXXXXXX ...  ",
"X  ...  XXXXXXXXXX ...  ",
"X  ...  XXXXXXXXXX ...  ",
"X  ...  XXXXXXXXXX ...  ",
"X  ...  XXXXXXXXXX ...  ",
"X  ...  XXXXXXXXXX ...  ",
"X  ...  XXXXXXXXXX ...  ",
"X  ...  XXXXXXXXXX ...  ",
"X  ...  XXXXXXXXXX ...  ",
"X  ...  XXXXXXXXXX ...  ",
"X  ...  XXXXXXXXXX ...  ",
"X  ...  XXXXXXXXXX ...  ",
"X  ...  XXXXXXXXXX ...  ",
"X  ...  XXXXXXXXXX ...  ",
"X  ...  XXXXXXXXXX ...  ",
"X  ...  XXXXXXXXXX ...  ",
"X  ...  XXXXXXXXXX ...  ",
"X  ...  XXXXXXXXXX ...  ",
"X  ...             ...  ",
"X                       ",
"XX    ............      ",
"XXX   ............      ",
"XXXXX ............   XXX",
"XXXXX                XXX",
"XXXXXXX              XXX",
"XXXXXXX              XXX"
};
