/* XPM */
static xpm_row_t const lv[] = {
/* columns rows colors chars-per-pixel */
"24 32 3 1 ",
"  c #1A14D8",
". c #FFFFFF",
"X c None",
/* pixels */
"X      XXXXXXXXXX      X",
"X .... XXXXXXXXXX  ... X",
"  ....  XXXXXXXXX  ...  ",
"  ....  XXXXXXXXX  ...  ",
"  ....  XXXXXXXXX  ...  ",
"  ....  XXXXXXXXX  ...  ",
"  ....  XXXXXXXXX  ...  ",
"  ....  XXXXXXXXX  ...  ",
"  ....  XXXXXXXXX  ...  ",
"  ....  XXXXXXXXX  ...  ",
"  ....  XXXXXXXXX  ...  ",
"  ....  XXXXXXXXX  ...  ",
"  ....  XXXXXXXXX  ...  ",
"  ....  XXXXXXXXX  ...  ",
"  ....  XXXXXXXXX  ...  ",
"  ....  XXXXXXXXX  ...  ",
"  ....  XXXXXXXXX  ...  ",
"  ....  XXXXXXXXX  ...  ",
"  ....  XXXXXXXXX  ...  ",
"  ....  XXXXXXXXX  ...  ",
"  ....    XXX      ...  ",
"           XX           ",
"XX    ...   X ....      ",
"XXX   ...   X ....      ",
"XXXXX ...     ....  XXXX",
"XXXXX               XXXX",
"XXXXXX    ...       XXXX",
"XXXXXXX   ...       XXXX",
"XXXXXXXXX ...   XXXXXXXX",
"XXXXXXXXX       XXXXXXXX",
"XXXXXXXXXX      XXXXXXXX",
"XXXXXXXXXX      XXXXXXXX"
};
