/* XPM */
static xpm_row_t const lw[] = {
/* columns rows colors chars-per-pixel */
"24 32 3 1 ",
"  c #1A14D8",
". c #FFFFFF",
"X c None",
/* pixels */
"X     XXXXXXXXXXX      X",
"  ...   XXXXXXXXX ....  ",
"  ...   XXXXXXXXX ....  ",
"  ...   XXXXXXXXX ....  ",
"  ...   XXXXXXXXX ....  ",
"  ...   XXXXXXXXX ....  ",
"  ...   XXXXXXXXX ....  ",
"  ...   XXXXXXXXX ....  ",
"  ...   XXXXXXXXX ....  ",
"  ...   XXXXXXXXX ....  ",
"  ...   XXXXXXXXX ....  ",
"  ...   XXXXXXXXX ....  ",
"  ...   XXXXXXXXX ....  ",
"  ...   XXXXXXXXX ....  ",
"  ...   XXXXXXXXX ....  ",
"  ...   XXXXXXXXX ....  ",
"  ...   X      XX ....  ",
"  ...     ....  X ....  ",
"  ...     ....  X ....  ",
"  ...     ....  X ....  ",
"  ...     ....    ....  ",
"  .......     ........  ",
"  .......     ........  ",
"  .......   X ........  ",
"X .......   X ........  ",
"X ...       X     ....  ",
"X ...       XX    ....  ",
"X ...      XXXX   ....  ",
"X ...   XXXXXXXXX ....  ",
"X       XXXXXXXXX       ",
"XX      XXXXXXXXXX      ",
"XX      XXXXXXXXXX      "
};
