/* XPM */
static xpm_row_t const lx[] = {
/* columns rows colors chars-per-pixel */
"24 32 5 1 ",
"  c #1A14D8",
". c #F3F3FC",
"X c #FDFDFE",
"o c #FFFFFF",
"O c None",
/* pixels */
"      OOOOOOOOOO      OO",
"  ooo  OOOOOOOOO ooooX  ",
"  ooo  OOOOOOOOO ooooo  ",
"  ooo  OOOOOOOOO ooooo  ",
"  ooo  OOOOOOOOO ooooo  ",
"  ooo  OOOOOOOOO ooooo  ",
"  ooo  OOOOOOOOO ooooo  ",
"  ooo  OOOOOOOOO ooooo  ",
"  ooo     OO     ooooo  ",
"O    oooo  O oooo       ",
"OO   oooo  O oooo       ",
"OOOO oooo  O oooo   OOOO",
"OOOO oooo    oooo   OOOO",
"OOOOO    oooo       OOOO",
"OOOOO    oooo       OOOO",
"OOOOOOOO oooo  OOOOOOOOO",
"OOOO     oooo     OOOOOO",
"OOOO oooo    oooo   OOOO",
"OOOO oooo    oooo   OOOO",
"OOOO oooo  O oooo   OOOO",
"     .ooo  O oooo     OO",
"  ooo      O     oooo  O",
"  ooo      OO    oooo   ",
"  ooo      OOO   oooo   ",
"  ooo  OOOOOOOOO oooo   ",
"  ooo  OOOOOOOOO oooo   ",
"  ooo  OOOOOOOOO oooo   ",
"  ooo  OOOOOOOOO oooo   ",
"  ooo  OOOOOOOOO oooo   ",
"       OOOOOOOOO        ",
"OO     OOOOOOOOOOO      ",
"OO     OOOOOOOOOOO      "
};
