/* XPM */
static xpm_row_t const ly[] = {
/* columns rows colors chars-per-pixel */
"24 32 3 1 ",
"  c #1A14D8",
". c #FFFFFF",
"X c None",
/* pixels */
"      XXXXXXXXXX      XX",
" ....  XXXXXXXXX  ...  X",
" ....  XXXXXXXXX  ...   ",
" ....  XXXXXXXXX  ...   ",
" ....  XXXXXXXXX  ...   ",
" ....  XXXXXXXXX  ...  X",
" ....  XXXXXXXXX  ...  X",
" ....  XXXXXXXXX  ...   ",
" ....  XXXXXXXXX  ...   ",
" ....  XXXXXXXXX  ...   ",
" ....  XXXXXXXXX  ...   ",
" ....  XXXXXXXXX  ...   ",
" ....             ...   ",
"     ............       ",
"X    ............      X",
"XXXX ............   XXXX",
"XXXX ............   XXXX",
"XXXX     ....       XXXX",
"XXXXX    ....       XXXX",
"XXXXXXXX ....   XXXXXXXX",
"XXXXXXXX ....   XXXXXXXX",
"XXXXXXXX ....   XXXXXXXX",
"XXXXXXXX ....   XXXXXXXX",
"XXXXXXXX ....   XXXXXXXX",
"XXXXXXXX ....   XXXXXXXX",
"XXXXXXXX ....   XXXXXXXX",
"XXXXXXXX ....   XXXXXXXX",
"XXXXXXXX ....   XXXXXXXX",
"XXXXXXXX ....   XXXXXXXX",
"XXXXXXXX        XXXXXXXX",
"XXXXXXXXXX      XXXXXXXX",
"XXXXXXXXXX      XXXXXXXX"
};
