/* XPM */
static xpm_row_t const lz[] = {
/* columns rows colors chars-per-pixel */
"24 32 3 1 ",
"  c #1A14D8",
". c #FFFFFF",
"X c None",
/* pixels */
"                      XX",
" ....................  X",
" ....................  X",
" ....................  X",
" ....................  X",
"                 ....  X",
"X                ....  X",
"XXXXXXXXXXXXXXXX ....  X",
"XXXXXXXXXXXX     ....  X",
"XXXXXXXXXXX  ....      X",
"XXXXXXXXXXX  ....      X",
"XXXXXXXXXXX  ....  XXXXX",
"XXXXXXXX     ....  XXXXX",
"XXXXXXXX ...       XXXXX",
"XXXXXXXX ...       XXXXX",
"XXXXXXX  ...   XXXXXXXXX",
"XXXX     ...   XXXXXXXXX",
"XXXX ...       XXXXXXXXX",
"XXXX ...       XXXXXXXXX",
"XXX  ...   XXXXXXXXXXXXX",
"     ...   XXXXXXXXXXXXX",
" ...       XXXXXXXXXXXXX",
" ...       XXXXXXXXXXXXX",
" ...   XXXXXXXXXXXXXXXXX",
" ...                  XX",
" .................... XX",
" ....................  X",
" ....................  X",
" ....................  X",
"                       X",
"X                      X",
"X                      X"
};
