/* XPM */
static xpm_row_t const n0[] = {
/* columns rows colors chars-per-pixel */
"32 32 3 1 ",
"  c #000000",
". c #FFFFFF",
"X c None",
/* pixels */
"XXXXXXXX              XXXXXXXXXX",
"XXXXXXXX .............XXXXXXXXXX",
"XXXXXXXX .............  XXXXXXXX",
"XXXXXXXX .............  XXXXXXXX",
"XXXX     .............     XXXXX",
"XXXX ....         ........ XXXXX",
"XXXX ....         ........  XXXX",
"XXXX ....  XXXXXX ........  XXXX",
"XXXX ....  XXXXXX ........  XXXX",
"XXXX ....  XX     ........  XXXX",
"XXXX ....  XX ....    ....  XXXX",
"XXXX ....  XX ....    ....  XXXX",
"XXXX ....  XX ....  X ....  XXXX",
"XXXX ....  XX ....  X ....  XXXX",
"XXXX ....  XX ....  X ....  XXXX",
"XXXX ....  XX ....  X ....  XXXX",
"XXXX ....  XX ....  X ....  XXXX",
"XXXX ....  XX ....  X ....  XXXX",
"XXXX ....  XX ....  X ....  XXXX",
"XXXX ....  XX ....  X ....  XXXX",
"XXXX ....  XX ....  X ....  XXXX",
"XXXX ....           X ....  XXXX",
"XXXX ........       X ....  XXXX",
"XXXX ........   XXXXX ....  XXXX",
"XXXX ........   XXXXX ....  XXXX",
"XXXX ........         ....  XXXX",
"XXXX     .............      XXXX",
"XXXXXX   .............      XXXX",
"XXXXXXXX .............  XXXXXXXX",
"XXXXXXXX .............  XXXXXXXX",
"XXXXXXXX                XXXXXXXX",
"XXXXXXXXXX              XXXXXXXX"
};
