/* XPM */
static xpm_row_t const n1[] = {
/* columns rows colors chars-per-pixel */
"32 32 4 1 ",
"  c #000000",
". c #7C7C7C",
"X c #FFFFFF",
"o c None",
/* pixels */
"oooooooooooo      oooooooooooooo",
"oooooooooooo ....  ooooooooooooo",
"oooooooooooo XXXX  ooooooooooooo",
"oooooooooooo XXXX  ooooooooooooo",
"oooooooo     XXXX  ooooooooooooo",
"oooooooo ....XXXX  ooooooooooooo",
"oooooooo XXXXXXXX  ooooooooooooo",
"oooooooo XXXXXXXX  ooooooooooooo",
"oooooooo XXXXXXXX  ooooooooooooo",
"oooooooo XXXXXXXX  ooooooooooooo",
"oooooooo     XXXX  ooooooooooooo",
"ooooooooo    XXXX  ooooooooooooo",
"oooooooooooo XXXX  ooooooooooooo",
"oooooooooooo XXXX  ooooooooooooo",
"oooooooooooo XXXX  ooooooooooooo",
"oooooooooooo XXXX  ooooooooooooo",
"oooooooooooo XXXX  ooooooooooooo",
"oooooooooooo XXXX  ooooooooooooo",
"oooooooooooo XXXX  ooooooooooooo",
"oooooooooooo XXXX  ooooooooooooo",
"oooooooooooo XXXX  ooooooooooooo",
"oooooooooooo XXXX  ooooooooooooo",
"oooooooooooo XXXX  ooooooooooooo",
"oooooooooooo XXXX  ooooooooooooo",
"oooooooo     XXXX      ooooooooo",
"oooooooo ....XXXX..... ooooooooo",
"oooooooo XXXXXXXXXXXXX  oooooooo",
"oooooooo XXXXXXXXXXXXX  oooooooo",
"oooooooo XXXXXXXXXXXXX  oooooooo",
"oooooooo XXXXXXXXXXXXX  oooooooo",
"oooooooo                oooooooo",
"ooooooooo               oooooooo"
};
