/* XPM */
static xpm_row_t const n2[] = {
/* columns rows colors chars-per-pixel */
"32 32 8 1 ",
"  c #000000",
". c #0B0B0B",
"X c #7C7C7C",
"o c #F2F2F2",
"O c #F4F4F4",
"+ c #FDFDFD",
"@ c #FFFFFF",
"# c None",
/* pixels */
"########               #########",
"######## XXXXXXXXXXXXX  ########",
"######## @@@@@@@@@@@@@  ########",
"######## @@@@@@@@@@@@@  ########",
"####     @@@@@@@@@@@@@     #####",
"#### X@@@             @@@X #####",
"#### X@@@             @@@X  ####",
"#### X@@@             @@@X  ####",
"#### X@@@   ########  @@@X  ####",
"####        ########  @@@X  ####",
"######      ########  @@@X  ####",
"####################  @@@X  ####",
"########              @@@X  ####",
"######## o+++++++++++@      ####",
"######## O@@@@@@@@@@@@      ####",
"######## O@@@@@@@@@@@@     #####",
"####     O@@@@@@@@@@@@  ########",
"#### X@@@               ########",
"#### X@@@               ########",
"#### X@@@   ####################",
"#### X@@@   ####################",
"#### X@@@   ####################",
"#### X@@@   ####################",
"#### X@@@   ####################",
"#### X@@@                . #####",
"#### X@@@XXXXXXXXXXXXXXXXX #####",
"#### X@@@@@@@@@@@@@@@@@@@@  ####",
"#### X@@@@@@@@@@@@@@@@@@@@  ####",
"#### X@@@@@@@@@@@@@@@@@@@@  ####",
"#### X@@@@@@@@@@@@@@@@@@@@  ####",
"####                        ####",
"#####                       ####"
};
