/* XPM */
static xpm_row_t const n3[] = {
/* columns rows colors chars-per-pixel */
"32 32 4 1 ",
"  c #000000",
". c #7C7C7C",
"X c #FFFFFF",
"o c None",
/* pixels */
"oooooooo              oooooooooo",
"oooooooo ............  ooooooooo",
"oooooooo XXXXXXXXXXXX  ooooooooo",
"oooooooo XXXXXXXXXXXX  ooooooooo",
"oooo     XXXXXXXXXXXX      ooooo",
"oooo .XXX            XXXXX  oooo",
"oooo .XXX            XXXXX  oooo",
"oooo .XXX            XXXXX  oooo",
"oooo .XXX  ooooooooo XXXXX  oooo",
"oooo .XXX  ooooooooo XXXXX  oooo",
"oooo       ooooooooo XXXXX  oooo",
"oooooo     ooooooooo XXXXX  oooo",
"oooooooooooo         XXXXX  oooo",
"oooooooooooo XXXXXXXX       oooo",
"oooooooooooo XXXXXXXX       oooo",
"oooooooooooo XXXXXXXX  ooooooooo",
"oooooooooooo XXXXXXXX  ooooooooo",
"oooooooooooo XXXXXXXX      ooooo",
"oooooooooooo         XXXXX ooooo",
"oooooooooooooo       XXXXX  oooo",
"oooo      oooooooooo XXXXX  oooo",
"oooo .XXX oooooooooo XXXXX  oooo",
"oooo .XXX   oooooooo XXXXX  oooo",
"oooo .XXX   oooooooo XXXXX  oooo",
"oooo .XXX   oooooooo XXXXX  oooo",
"oooo .XXX            XXXXX  oooo",
"oooo     XXXXXXXXXXXXX      oooo",
"oooooo   XXXXXXXXXXXXX      oooo",
"oooooooo XXXXXXXXXXXXX  oooooooo",
"oooooooo XXXXXXXXXXXXX  oooooooo",
"oooooooo                oooooooo",
"oooooooooo              oooooooo"
};
