/* XPM */
static xpm_row_t const n4[] = {
/* columns rows colors chars-per-pixel */
"32 32 4 1 ",
"  c #000000",
". c #7C7C7C",
"X c #FFFFFF",
"o c None",
/* pixels */
"oooo       ooooo       ooooooooo",
"oooo ..... ooooo ..... ooooooooo",
"oooo XXXXX   ooo XXXXX   ooooooo",
"oooo XXXXX   ooo XXXXX   ooooooo",
"oooo XXXXX   ooo XXXXX   ooooooo",
"oooo XXXXX   ooo XXXXX   ooooooo",
"oooo XXXXX   ooo XXXXX   ooooooo",
"oooo XXXXX   ooo XXXXX   ooooooo",
"oooo XXXXX   ooo XXXXX   ooooooo",
"oooo XXXXX   ooo XXXXX   ooooooo",
"oooo XXXXX   ooo XXXXX   ooooooo",
"oooo XXXXX   ooo XXXXX   ooooooo",
"oooo XXXXX       XXXXX     ooooo",
"oooo XXXXX.......XXXXX.... ooooo",
"oooo XXXXXXXXXXXXXXXXXXXXX  oooo",
"oooo XXXXXXXXXXXXXXXXXXXXX  oooo",
"oooo XXXXXXXXXXXXXXXXXXXXX  oooo",
"oooo XXXXXXXXXXXXXXXXXXXXX  oooo",
"oooo             XXXXX      oooo",
"oooooo           XXXXX      oooo",
"oooooooooooooooo XXXXX  oooooooo",
"oooooooooooooooo XXXXX  oooooooo",
"oooooooooooooooo XXXXX  oooooooo",
"oooooooooooooooo XXXXX  oooooooo",
"oooooooooooooooo XXXXX  oooooooo",
"oooooooooooooooo XXXXX  oooooooo",
"oooooooooooooooo XXXXX  oooooooo",
"oooooooooooooooo XXXXX  oooooooo",
"oooooooooooooooo XXXXX  oooooooo",
"oooooooooooooooo XXXXX  oooooooo",
"oooooooooooooooo        oooooooo",
"oooooooooooooooooo      oooooooo"
};
