/* XPM */
static xpm_row_t const n5[] = {
/* columns rows colors chars-per-pixel */
"32 32 4 1 ",
"  c #000000",
". c #7C7C7C",
"X c #FFFFFF",
"o c None",
/* pixels */
"oooo                   ooooooooo",
"oooo ................. ooooooooo",
"oooo XXXXXXXXXXXXXXXXX   ooooooo",
"oooo XXXXXXXXXXXXXXXXX   ooooooo",
"oooo XXXXXXXXXXXXXXXXX   ooooooo",
"oooo XXXX                ooooooo",
"oooo XXXX                ooooooo",
"oooo XXXX oooooooooooooooooooooo",
"oooo XXXX oooooooooooooooooooooo",
"oooo XXXX              ooooooooo",
"oooo XXXX.............  oooooooo",
"oooo XXXXXXXXXXXXXXXXX  oooooooo",
"oooo XXXXXXXXXXXXXXXXX     ooooo",
"oooo                  XXXX ooooo",
"oooooo                XXXX  oooo",
"oooooo                XXXX  oooo",
"ooooooooooooooooooooo XXXX  oooo",
"ooooooooooooooooooooo XXXX  oooo",
"ooooooooooooooooooooo XXXX  oooo",
"ooooooooooooooooooooo XXXX  oooo",
"oooo      ooooooooooo XXXX  oooo",
"oooo .XXX ooooooooooo XXXX  oooo",
"oooo .XXX   ooooooooo XXXX  oooo",
"oooo .XXX   ooooooooo XXXX  oooo",
"oooo .XXX   ooooooooo XXXX  oooo",
"oooo .XXX             XXXX  oooo",
"oooo     .............      oooo",
"ooooo    XXXXXXXXXXXXX      oooo",
"oooooooo XXXXXXXXXXXXX  oooooooo",
"oooooooo XXXXXXXXXXXXX  oooooooo",
"oooooooo                oooooooo",
"oooooooooo              oooooooo"
};
