/* XPM */
static xpm_row_t const n6[] = {
/* columns rows colors chars-per-pixel */
"32 32 4 1 ",
"  c #000000",
". c #7C7C7C",
"X c #FFFFFF",
"o c None",
/* pixels */
"oooooooo              oooooooooo",
"oooooooo ............ oooooooooo",
"oooooooo XXXXXXXXXXXX   oooooooo",
"oooooooo XXXXXXXXXXXX   oooooooo",
"oooo     XXXXXXXXXXXX   oooooooo",
"oooo .XXX               oooooooo",
"oooo .XXX               oooooooo",
"oooo .XXX               oooooooo",
"oooo .XXX             oooooooooo",
"oooo .XXX             oooooooooo",
"oooo .XXXXXXXXXXXXXXX   oooooooo",
"oooo .XXXXXXXXXXXXXXX   oooooooo",
"oooo .XXXXXXXXXXXXXXX      ooooo",
"oooo .XXX            XXXXX ooooo",
"oooo .XXX            XXXXX  oooo",
"oooo .XXX   ooooooo. XXXXX  oooo",
"oooo .XXX   ooooooo. XXXXX  oooo",
"oooo .XXX   ooooooo. XXXXX  oooo",
"oooo .XXX   ooooooo. XXXXX  oooo",
"oooo .XXX   ooooooo. XXXXX  oooo",
"oooo .XXX   ooooooo. XXXXX  oooo",
"oooo .XXX   ooooooo. XXXXX  oooo",
"oooo .XXX   ooooooo. XXXXX  oooo",
"oooo .XXX   ooooooo. XXXXX  oooo",
"oooo .XXX   ........ XXXXX  oooo",
"oooo .XXX            XXXXX  oooo",
"oooo     XXXXXXXXXXXX       oooo",
"oooooo   XXXXXXXXXXXX       oooo",
"oooooooo XXXXXXXXXXXX   oooooooo",
"oooooooo XXXXXXXXXXXX   oooooooo",
"oooooooo                oooooooo",
"oooooooooo              oooooooo"
};
