/* XPM */
static xpm_row_t const n7[] = {
/* columns rows colors chars-per-pixel */
"32 32 4 1 ",
"  c #000000",
". c #7C7C7C",
"X c #FFFFFF",
"o c None",
/* pixels */
"oooo                       ooooo",
"oooo ..................... ooooo",
"oooo XXXXXXXXXXXXXXXXXXXXX  oooo",
"oooo XXXXXXXXXXXXXXXXXXXXX  oooo",
"oooo XXXXXXXXXXXXXXXXXXXXX  oooo",
"oooo                  XXXX  oooo",
"oooooo                XXXX  oooo",
"oooooo                XXXX  oooo",
"oooooooooooooooo      XXXX  oooo",
"oooooooooooooooo XXXXX      oooo",
"oooooooooooooooo XXXXX      oooo",
"oooooooooooooooo XXXXX      oooo",
"oooooooooooo     XXXXX  oooooooo",
"oooooooooooo XXXX       oooooooo",
"oooooooooooo XXXX       oooooooo",
"oooooooooooo XXXX       oooooooo",
"oooooooooooo XXXX   oooooooooooo",
"oooooooooooo XXXX   oooooooooooo",
"oooooooooooo XXXX   oooooooooooo",
"oooooooooooo XXXX   oooooooooooo",
"oooooooooooo XXXX   oooooooooooo",
"oooooooooooo XXXX   oooooooooooo",
"oooooooooooo XXXX   oooooooooooo",
"oooooooooooo XXXX   oooooooooooo",
"oooooooooooo XXXX   oooooooooooo",
"oooooooooooo XXXX   oooooooooooo",
"oooooooooooo XXXX   oooooooooooo",
"oooooooooooo XXXX   oooooooooooo",
"oooooooooooo XXXX   oooooooooooo",
"oooooooooooo XXXX   oooooooooooo",
"oooooooooooo        oooooooooooo",
"oooooooooooooo      oooooooooooo"
};
