/* XPM */
static xpm_row_t const n8[] = {
/* columns rows colors chars-per-pixel */
"32 32 4 1 ",
"  c #000000",
". c #7C7C7C",
"X c #FFFFFF",
"o c None",
/* pixels */
"oooooooo              oooooooooo",
"oooooooo ............ oooooooooo",
"oooooooo XXXXXXXXXXXX   oooooooo",
"oooooooo XXXXXXXXXXXX   oooooooo",
"oooo     XXXXXXXXXXXX      ooooo",
"oooo .XXX            XXXXX ooooo",
"oooo .XXX            XXXXX  oooo",
"oooo .XXX  oooooooo. XXXXX  oooo",
"oooo .XXX  oooooooo. XXXXX  oooo",
"oooo .XXX  oooooooo. XXXXX  oooo",
"oooo .XXX  oooooooo. XXXXX  oooo",
"oooo .XXX  ......... XXXXX  oooo",
"oooo .XXX            XXXXX  oooo",
"oooo     XXXXXXXXXXXX       oooo",
"oooooo   XXXXXXXXXXXX       oooo",
"oooooo   XXXXXXXXXXXX  ooooooooo",
"oooo     XXXXXXXXXXXX      ooooo",
"oooo .XXX            XXXXX ooooo",
"oooo .XXX            XXXXX  oooo",
"oooo .XXX  oooooooo. XXXXX  oooo",
"oooo .XXX  oooooooo. XXXXX  oooo",
"oooo .XXX  oooooooo. XXXXX  oooo",
"oooo .XXX  oooooooo. XXXXX  oooo",
"oooo .XXX  oooooooo. XXXXX  oooo",
"oooo .XXX  ......... XXXXX  oooo",
"oooo .XXX            XXXXX  oooo",
"oooo     XXXXXXXXXXXX       oooo",
"oooooo   XXXXXXXXXXXX       oooo",
"oooooooo XXXXXXXXXXXX   oooooooo",
"oooooooo XXXXXXXXXXXX   oooooooo",
"oooooooo                oooooooo",
"oooooooooo              oooooooo"
};
