/* XPM */
static xpm_row_t const n9[] = {
/* columns rows colors chars-per-pixel */
"32 32 4 1 ",
"  c #000000",
". c #7C7C7C",
"X c #FFFFFF",
"o c None",
/* pixels */
"oooooooo               ooooooooo",
"oooooooo ............. ooooooooo",
"oooooooo XXXXXXXXXXXXX  oooooooo",
"oooooooo XXXXXXXXXXXXX  oooooooo",
"oooo     XXXXXXXXXXXXX     ooooo",
"oooo .XXX             XXXX ooooo",
"oooo .XXX             XXXX  oooo",
"oooo .XXX  ooooooooo. XXXX  oooo",
"oooo .XXX  ooooooooo. XXXX  oooo",
"oooo .XXX  ooooooooo. XXXX  oooo",
"oooo .XXX  ooooooooo. XXXX  oooo",
"oooo .XXX  ooooooooo. XXXX  oooo",
"oooo .XXX  ooooooooo. XXXX  oooo",
"oooo .XXX  ooooooooo. XXXX  oooo",
"oooo .XXX  ooooooooo. XXXX  oooo",
"oooo .XXX  .......... XXXX  oooo",
"oooo .XXX             XXXX  oooo",
"oooo     XXXXXXXXXXXXXXXXX  oooo",
"oooooo   XXXXXXXXXXXXXXXXX  oooo",
"oooooo   XXXXXXXXXXXXXXXXX  oooo",
"oooooooo XXXXXXXXXXXXXXXXX  oooo",
"oooooooo              XXXX  oooo",
"oooooooooo            XXXX  oooo",
"oooooooooo            XXXX  oooo",
"ooooooooooooooooooooo XXXX  oooo",
"oooooooo              XXXX  oooo",
"oooooooo XXXXXXXXXXXXX      oooo",
"oooooooo XXXXXXXXXXXXX      oooo",
"oooooooo XXXXXXXXXXXXX  oooooooo",
"oooooooo XXXXXXXXXXXXX  oooooooo",
"oooooooo                oooooooo",
"oooooooooo              oooooooo"
};
