/* XPM */
static xpm_row_t const play_button[] = {
/* columns rows colors chars-per-pixel */
"200 50 55 1 ",
"  c #1A14D8",
". c #1A15D8",
"X c #1A16D8",
"o c #1A17D8",
"O c #1A18D8",
"+ c #1A1BD8",
"@ c #1A1CD8",
"# c #1A1DD8",
"$ c #191ED8",
"% c #191FD8",
"& c #1925D7",
"* c #1927D7",
"= c #192AD7",
"- c #182FD7",
"; c #1920D8",
": c #1A21D8",
"> c #1922D8",
", c #1922D9",
"< c #1926D8",
"1 c #1928D8",
"2 c #1928D9",
"3 c #182BD8",
"4 c #192DD8",
"5 c #182FD9",
"6 c #1730D7",
"7 c #1732D8",
"8 c #1734D8",
"9 c #1736D8",
"0 c #1737D8",
"q c #1830D8",
"w c #1830D9",
"e c #1833D8",
"r c #1834D8",
"t c #1835D9",
"y c #1638D8",
"u c #1738D8",
"i c #1739D8",
"p c #173AD8",
"a c #173BD8",
"s c #163CD8",
"d c #163ED8",
"f c #163FD8",
"g c #1838D8",
"h c #1540D8",
"j c #1541D8",
"k c #1640D8",
"l c #1642D8",
"z c #1644D8",
"x c #1447D8",
"c c #1448D8",
"v c #1449D8",
"b c #1549D8",
"n c #144AD8",
"m c #B6BCEB",
"M c #FFFFFF",
/* pixels */
"                                                                                                                                                                                                        ",
"                                                                                                                                                                                                        ",
"                                                                                                                                                                                                        ",
"                                                                                                                                                                                                        ",
"    nnnnnnnnnnnnnnnnnnnnnnnnnnnnnnnnnnnnnnnnnnnnnnnnnnnnnnnnnnnnnnnnnnnnnnnnnnnnnnnnnnnnnnnnnnnnnnnnnnnnnnnnnnnnnnnnnnnnnnnnnnnnnnnnnnnnnnnnnnnnnnnnnnnnnnnnnnnnnnnnnnnnnnnnnnnnnnnnnnnnnnnnnnnnnnnn    ",
"    nnnnnnnnnnnnnnnnnnnnnnnnnnnnnnnnnnnnnnnnnnnnnnnnnnnnnnnnnnnnnnnnnnnnnnnnnnnnnnnnnnnnnnnnnnnnnnnnnnnnnnnnnnnnnnnnnnnnnnnnnnnnnnnnnnnnnnnnnnnnnnnnnnnnnnnnnnnnnnnnnnnnnnnnnnnnnnnnnnnnnnnnnnnnnnnn    ",
"    nnnnnnnnnnnnnnnnnnnnnnnnnnnnnnnnnnnnnnnnnnnnnnnnnnnnnnnnnnnnnnnnnnnnnnnnnnnnnnnnnnnnnnnnnnnnnnnnnnnnnnnnnnnnnnnnnnnnnnnnnnnnnnnnnnnnnnnnnnnnnnnnnnnnnnnnnnnnnnnnnnnnnnnnnnnnnnnnnnnnnnnnnnnnnnnn    ",
"    nnnnnnnnnnnnnnnnnnnnnnnnnnnnnnnnnnnnnn                     nnnnnnnnh%7777*8nnnnnnnnnnnnnnnnnnnnnnnnnnr                lnnnnnnnnh%7777*8nnnnnnnnnnnn;5777qOnnnnnnnnnnnnnnnnnnnnnnnnnnnnnnnnnnnnnn    ",
"    nnnnnnnnnnnnnnnnnnnnnnnnnnnnnnnnnnnnnn=MMMMMMMMMMMMMMMMMMM@nnnnnnnnh=MMMMu;3znnnnnnnnnnnnnnnnnnnnnnnnriMMMMMMMMMMMMMM2*4nnnnnnnh=MMMMu;3znnnnnnnnnn;MMMMM.3nnnnnnnnnnnnnnnnnnnnnnnnnnnnnnnnnnnnn    ",
"    nnnnnnnnnnnnnnnnnnnnnnnnnnnnnnnnnnnnnn=MMMMMMMMMMMMMMMMMMM@ <nnnnnnh=MMMMu  jnnnnnnnnnnnnnnnnnnnnnnnnriMMMMMMMMMMMMMM2 +nnnnnnnh=MMMMu  jnnnnnnnnnn;MMMMM  nnnnnnnnnnnnnnnnnnnnnnnnnnnnnnnnnnnnn    ",
"    nnnnnnnnnnnnnnnnnnnnnnnnnnnnnnnnnnnnnn=MMMMMMMMMMMMMMMMMMM@ <nnnnnnh=MMMMu  jnnnnnnnnnnnnnnnnnnnnnnnnriMMMMMMMMMMMMMM2 +nnnnnnnh=MMMMu  jnnnnnnnnnn;MMMMM  nnnnnnnnnnnnnnnnnnnnnnnnnnnnnnnnnnnnn    ",
"    nnnnnnnnnnnnnnnnnnnnnnnnnnnnnnnnnnnnnn=MMMMMMMMMMMMMMMMMMM@ #nnnnnnh=MMMMu  jnnnnnnnnnnnnnnnnnnnnrrrr&iMMMMMMMMMMMMMM2 orr8nnnnh=MMMMu  jnnnnnnnnnn;MMMMM  nnnnnnnnnnnnnnnnnnnnnnnnnnnnnnnnnnnnn    ",
"    nnnnnnnnnnnnnnnnnnnnnnnnnnnnnnnnnnnnnn=MMMMMMMMMMMMMMMMMMM@    Onnnh=MMMMu  jnnnnnnnnnnnnnnnnnnnn     iMMMMMMMMMMMMMM2    Onnnnh=MMMMu  jnnnnnnnnnn;MMMMM  nnnnnnnnnnnnnnnnnnnnnnnnnnnnnnnnnnnnn    ",
"    nnnnnnnnnnnnnnnnnnnnnnnnnnnnnnnnnnnnnn=MMMMa              mMMMM ,enh=MMMMu  jnnnnnnnnnnnnnnnnnnnn=MMMMa              MMMMM ,nnnh=MMMMu  jnnnnnnnnnn;MMMMM  nnnnnnnnnnnnnnnnnnnnnnnnnnnnnnnnnnnnn    ",
"    nnnnnnnnnnnnnnnnnnnnnnnnnnnnnnnnnnnnnn=MMMMa              mMMMM  -nh=MMMMu  jnnnnnnnnnnnnnnnnnnnn=MMMMa              MMMMM  nnnh=MMMMu  jnnnnnnnnnn;MMMMM  nnnnnnnnnnnnnnnnnnnnnnnnnnnnnnnnnnnnn    ",
"    nnnnnnnnnnnnnnnnnnnnnnnnnnnnnnnnnnnnnn=MMMMa  fnnnnnnnnnn+mMMMM  -nh=MMMMu  jnnnnnnnnnnnnnnnnnnnn=MMMMa  fnnnnnnnnnn+MMMMM  nnnh=MMMMu  jnnnnnnnnnn;MMMMM  nnnnnnnnnnnnnnnnnnnnnnnnnnnnnnnnnnnnn    ",
"    nnnnnnnnnnnnnnnnnnnnnnnnnnnnnnnnnnnnnn=MMMMa  fnnnnnnnnnn+mMMMM  -nh=MMMMu  jnnnnnnnnnnnnnnnnnnnn=MMMMa  fnnnnnnnnnn+MMMMM  nnnh=MMMMu  jnnnnnnnnnn;MMMMM  nnnnnnnnnnnnnnnnnnnnnnnnnnnnnnnnnnnnn    ",
"    nnnnnnnnnnnnnnnnnnnnnnnnnnnnnnnnnnnnnn=MMMMa  fnnnnnnnnnn+mMMMM  -nh=MMMMu  jnnnnnnnnnnnnnnnnnnnn=MMMMa  fnnnnnnnnnn+MMMMM  nnnh=MMMMu  jnnnnnnnnnn;MMMMM  nnnnnnnnnnnnnnnnnnnnnnnnnnnnnnnnnnnnn    ",
"    nnnnnnnnnnnnnnnnnnnnnnnnnnnnnnnnnnnnnn=MMMMa  fnnnnnnnnnn+mMMMM  -nh=MMMMu  jnnnnnnnnnnnnnnnnnnnn=MMMMa  fnnnnnnnnnn+MMMMM  nnnh=MMMMu  jnnnnnnnnnn;MMMMM  nnnnnnnnnnnnnnnnnnnnnnnnnnnnnnnnnnnnn    ",
"    nnnnnnnnnnnnnnnnnnnnnnnnnnnnnnnnnnnnnn=MMMMa  fnnnnnnnnnn+mMMMM  -nh=MMMMu  jnnnnnnnnnnnnnnnnnnnn=MMMMa  fnnnnnnnnnn+MMMMM  nnnh=MMMMu  jnnnnnnnnnn;MMMMM  nnnnnnnnnnnnnnnnnnnnnnnnnnnnnnnnnnnnn    ",
"    nnnnnnnnnnnnnnnnnnnnnnnnnnnnnnnnnnnnnn=MMMMa              mMMMM  -nh=MMMMu  jnnnnnnnnnnnnnnnnnnnn=MMMMa              MMMMM  nnnh=MMMMu  jnnnnnnnnnn;MMMMM  nnnnnnnnnnnnnnnnnnnnnnnnnnnnnnnnnnnnn    ",
"    nnnnnnnnnnnnnnnnnnnnnnnnnnnnnnnnnnnnnn=MMMMa              mMMMM  -nh=MMMMu  jnnnnnnnnnnnnnnnnnnnn=MMMMa              MMMMM  nnnh=MMMMu  $;;;;;;;;;;XMMMMM  nnnnnnnnnnnnnnnnnnnnnnnnnnnnnnnnnnnnn    ",
"    nnnnnnnnnnnnnnnnnnnnnnnnnnnnnnnnnnnnnn=MMMMMMMMMMMMMMMMMMM@      -nh=MMMMu  jnnnnnnnnnnnnnnnnnnnn=MMMMMMMMMMMMMMMMMMMMMMMM  nnnh     7MMMMMMMMMMMMMM@      nnnnnnnnnnnnnnnnnnnnnnnnnnnnnnnnnnnnn    ",
"    nnnnnnnnnnnnnnnnnnnnnnnnnnnnnnnnnnnnnn=MMMMMMMMMMMMMMMMMMM@      -nh=MMMMu  jnnnnnnnnnnnnnnnnnnnn=MMMMMMMMMMMMMMMMMMMMMMMM  nnnbx6   7MMMMMMMMMMMMMM@      nnnnnnnnnnnnnnnnnnnnnnnnnnnnnnnnnnnnn    ",
"    nnnnnnnnnnnnnnnnnnnnnnnnnnnnnnnnnnnnnn=MMMMMMMMMMMMMMMMMMM@ O<<<<tnh=MMMMu  jnnnnnnnnnnnnnnnnnnnn=MMMMMMMMMMMMMMMMMMMMMMMM  nnnnny<<;7MMMMMMMMMMMMMM@ O<<<<nnnnnnnnnnnnnnnnnnnnnnnnnnnnnnnnnnnnn    ",
"    nnnnnnnnnnnnnnnnnnnnnnnnnnnnnnnnnnnnnn=MMMMMMMMMMMMMMMMMMM@ <nnnnnnh=MMMMu  jnnnnnnnnnnnnnnnnnnnn=MMMMMMMMMMMMMMMMMMMMMMMM  nnnnnnnnp7MMMMMMMMMMMMMM@ <nnnnnnnnnnnnnnnnnnnnnnnnnnnnnnnnnnnnnnnnn    ",
"    nnnnnnnnnnnnnnnnnnnnnnnnnnnnnnnnnnnnnn=MMMMMMMMMMMMMMMMMMM@ <nnnnnnh=MMMMu  jnnnnnnnnnnnnnnnnnnnn=MMMMMMMMMMMMMMMMMMMMMMMM  nnnnnnnnp7MMMMMMMMMMMMMM@ <nnnnnnnnnnnnnnnnnnnnnnnnnnnnnnnnnnnnnnnnn    ",
"    nnnnnnnnnnnnnnnnnnnnnnnnnnnnnnnnnnnnnn=MMMMM                <nnnnnnh=MMMMu  jnnnnnnnnnnnnnnnnnnnn=MMMMM              MMMMM  nnnnnnnnaO.    MMMM2      <nnnnnnnnnnnnnnnnnnnnnnnnnnnnnnnnnnnnnnnnn    ",
"    nnnnnnnnnnnnnnnnnnnnnnnnnnnnnnnnnnnnnn=MMMMM                <nnnnnnh=MMMMu  jnnnnnnnnnnnnnnnnnnnn=MMMMM              MMMMM  nnnnnnnnnn3    MMMM2      <nnnnnnnnnnnnnnnnnnnnnnnnnnnnnnnnnnnnnnnnn    ",
"    nnnnnnnnnnnnnnnnnnnnnnnnnnnnnnnnnnnnnn=MMMMM  nnnnnnnnnnnnnnnnnnnnnh=MMMMu  jnnnnnnnnnnnnnnnnnnnn=MMMMM  1----------.MMMMM  nnnnnnnnnnu--> MMMM2 X----tnnnnnnnnnnnnnnnnnnnnnnnnnnnnnnnnnnnnnnnnn    ",
"    nnnnnnnnnnnnnnnnnnnnnnnnnnnnnnnnnnnnnn=MMMMM  nnnnnnnnnnnnnnnnnnnnnh=MMMMu  jnnnnnnnnnnnnnnnnnnnn=MMMMM  dnnnnnnnnnnOMMMMM  nnnnnnnnnnnnnn MMMM2 +nnnnnnnnnnnnnnnnnnnnnnnnnnnnnnnnnnnnnnnnnnnnnn    ",
"    nnnnnnnnnnnnnnnnnnnnnnnnnnnnnnnnnnnnnn=MMMMM  nnnnnnnnnnnnnnnnnnnnnh=MMMMu  jnnnnnnnnnnnnnnnnnnnn=MMMMM  dnnnnnnnnnnOMMMMM  nnnnnnnnnnnnnn MMMM2 +nnnnnnnnnnnnnnnnnnnnnnnnnnnnnnnnnnnnnnnnnnnnnn    ",
"    nnnnnnnnnnnnnnnnnnnnnnnnnnnnnnnnnnnnnn=MMMMM  nnnnnnnnnnnnnnnnnnnnnh=MMMMu  jnnnnnnnnnnnnnnnnnnnn=MMMMM  dnnnnnnnnnnOMMMMM  nnnnnnnnnnnnnn MMMM2 +nnnnnnnnnnnnnnnnnnnnnnnnnnnnnnnnnnnnnnnnnnnnnn    ",
"    nnnnnnnnnnnnnnnnnnnnnnnnnnnnnnnnnnnnnn=MMMMM  nnnnnnnnnnnnnnnnnnnnnh=MMMMu  jnnnnnnnnnnnnnnnnnnnn=MMMMM  dnnnnnnnnnnOMMMMM  nnnnnnnnnnnnnn MMMM2 +nnnnnnnnnnnnnnnnnnnnnnnnnnnnnnnnnnnnnnnnnnnnnn    ",
"    nnnnnnnnnnnnnnnnnnnnnnnnnnnnnnnnnnnnnn=MMMMM  nnnnnnnnnnnnnnnnnnnnnh=MMMMu  jnnnnnnnnnnnnnnnnnnnn=MMMMM  dnnnnnnnnnnOMMMMM  nnnnnnnnnnnnnn MMMM2 +nnnnnnnnnnnnnnnnnnnnnnnnnnnnnnnnnnnnnnnnnnnnnn    ",
"    nnnnnnnnnnnnnnnnnnnnnnnnnnnnnnnnnnnnnn=MMMMM  nnnnnnnnnnnnnnnnnnnnnh=MMMMu  gfffffffffffffffffnnn=MMMMM  dnnnnnnnnnnOMMMMM  nnnnnnnnnnnnnn MMMM2 +nnnnnnnnnnnnnnnnnnnnnnnnnnnnnnnnnnnnnnnnnnnnnn    ",
"    nnnnnnnnnnnnnnnnnnnnnnnnnnnnnnnnnnnnnn=MMMMM  nnnnnnnnnnnnnnnnnnnnnh=MMMMu                   Onnn=MMMMM  dnnnnnnnnnnOMMMMM  nnnnnnnnnnnnnn MMMM2 +nnnnnnnnnnnnnnnnnnnnnnnnnnnnnnnnnnnnnnnnnnnnnn    ",
"    nnnnnnnnnnnnnnnnnnnnnnnnnnnnnnnnnnnnnn=MMMMM  nnnnnnnnnnnnnnnnnnnnnh=MMMMMMMMMMMMMMMMMMMMMMMM.wnn=MMMMM  dnnnnnnnnnnOMMMMM  nnnnnnnnnnnnnn MMMM2 +nnnnnnnnnnnnnnnnnnnnnnnnnnnnnnnnnnnnnnnnnnnnnn    ",
"    nnnnnnnnnnnnnnnnnnnnnnnnnnnnnnnnnnnnnn=MMMMM  nnnnnnnnnnnnnnnnnnnnnh=MMMMMMMMMMMMMMMMMMMMMMMM  nn=MMMMM  dnnnnnnnnnnOMMMMM  nnnnnnnnnnnnnn MMMM2 +nnnnnnnnnnnnnnnnnnnnnnnnnnnnnnnnnnnnnnnnnnnnnn    ",
"    nnnnnnnnnnnnnnnnnnnnnnnnnnnnnnnnnnnnnn=MMMMM  nnnnnnnnnnnnnnnnnnnnnn=MMMMMMMMMMMMMMMMMMMMMMMM  nn=MMMMM  dnnnnnnnnnnOMMMMM  nnnnnnnnnnnnnn MMMM2 +nnnnnnnnnnnnnnnnnnnnnnnnnnnnnnnnnnnnnnnnnnnnnn    ",
"    nnnnnnnnnnnnnnnnnnnnnnnnnnnnnnnnnnnnnn MMMMM  nnnnnnnnnnnnnnnnnnnnnn MMMMMMMMMMMMMMMMMMMMMMMM  nn MMMMM  snnncnvnvnn MMMMM  nnnnnnnnnnnnnn MMMM   nnnnnnnnnnnnnnnnnnnnnnnnnnnnnnnnnnnnnnnnnnnnnn    ",
"    nnnnnnnnnnnnnnnnnnnnnnnnnnnnnnnnnnnnnn:MMMMM  nnnnnnnnnnnnnnnnnnnnnn=MMMMMMMMMMMMMMMMMMMMMMMM  nn:MMMMM  knnnnnnnnnnOMMMMM  nnnnnnnnnnnnnn MMMM% +nnnnnnnnnnnnnnnnnnnnnnnnnnnnnnnnnnnnnnnnnnnnnn    ",
"    nnnnnnnnnnnnnnnnnnnnnnnnnnnnnnnnnnnnnn9<      nnnnnnnnnnnnnnnnnnnnnn9<                         nn9<      dnnnnnnnnnn05      nnnnnnnnnnnnnn +     +nnnnnnnnnnnnnnnnnnnnnnnnnnnnnnnnnnnnnnnnnnnnnn    ",
"    nnnnnnnnnnnnnnnnnnnnnnnnnnnnnnnnnnnnnnn7      nnnnnnnnnnnnnnnnnnnnnnn7                         nnn7      dnnnnnnnnnnnh      nnnnnnnnnnnnnnn,     +nnnnnnnnnnnnnnnnnnnnnnnnnnnnnnnnnnnnnnnnnnnnnn    ",
"    nnnnnnnnnnnnnnnnnnnnnnnnnnnnnnnnnnnnnnnnnnnnnnnnnnnnnnnnnnnnnnnnnnnnnnnnnnnnnnnnnnnnnnnnnnnnnnnnnnnnnnnnnnnnnnnnnnnnnnnnnnnnnnnnnnnnnnnnnnnnnnnnnnnnnnnnnnnnnnnnnnnnnnnnnnnnnnnnnnnnnnnnnnnnnnnn    ",
"    nnnnnnnnnnnnnnnnnnnnnnnnnnnnnnnnnnnnnnnnnnnnnnnnnnnnnnnnnnnnnnnnnnnnnnnnnnnnnnnnnnnnnnnnnnnnnnnnnnnnnnnnnnnnnnnnnnnnnnnnnnnnnnnnnnnnnnnnnnnnnnnnnnnnnnnnnnnnnnnnnnnnnnnnnnnnnnnnnnnnnnnnnnnnnnnn    ",
"                                                                                                                                                                                                        ",
"                                                                                                                                                                                                        ",
"                                                                                                                                                                                                        ",
"                                                                                                                                                                                                        "
};
