/* XPM */
static xpm_row_t const player[] = {
/* columns rows colors chars-per-pixel */
"64 32 2 1 ",
"  c #6A480D",
". c None",
/* pixels */
"...............................  ...............................",
"..............................    ..............................",
"..............................    ..............................",
"..............................    ..............................",
"...........................          ...........................",
"...................                          ...................",
"...........                                          ...........",
".......                                                  .......",
".......                                                  .......",
"......                                                    ......",
"......                                                    ......",
"......                                                    ......",
"......                                                    ......",
".....                                                      .....",
".....                                                      .....",
".....                                                      .....",
"....                                                        ....",
"....                                                        ....",
"....                                                        ....",
"....                                                         ...",
"...                                                          ...",
"...                                                          ...",
"...                                                          ...",
"..                                                            ..",
"..                                                            ..",
"..                                                            ..",
".                                                              .",
".                                                              .",
".                                                              .",
".                                                              .",
"                                                                ",
"                                                                "
};
